<svg width="165" height="50" viewBox="0 0 165 50" fill="none" xmlns="http://www.w3.org/2000/svg">
<path d="M34.2199 24.0051C35.828 22.7214 36.9858 21.0526 36.9858 18.5494C36.9858 17.2015 36.4712 15.7895 35.5064 14.6341L30.9394 15.982V16.4313C31.8399 16.6239 32.2902 17.5225 32.2902 18.3569C32.2902 24.0693 17.3029 22.8498 17.3029 32.0924C17.3029 34.724 19.1683 36.7779 20.905 37.5481L24.2498 35.1091L24.1855 34.6598C22.9634 34.6598 21.8055 33.5687 21.8055 32.1566C21.8055 28.7548 26.3082 27.7279 30.4248 26.059C31.5826 27.6637 32.3545 29.9743 32.3545 32.6701C32.3545 40.5006 26.1795 45.6996 18.5894 45.6996C10.9349 45.6354 4.75991 40.7574 4.75991 32.991C4.75991 26.1232 9.90576 21.5019 16.0808 21.5019H18.3321V16.9448H17.0456C12.543 16.9448 10.549 13.8639 10.549 10.7189C10.549 7.50963 13.1862 4.36457 17.5602 4.36457C21.6126 4.36457 24.4428 7.12452 24.5714 10.7831C24.5714 11.2965 24.5071 12.3877 24.1212 12.9012L24.4428 13.2863L29.3957 11.5533V10.9114C29.3313 4.49294 24.1212 0 17.5602 0C10.9993 0 5.72476 4.62131 5.72476 10.6547C5.72476 14.5058 7.5258 17.0732 10.2917 18.6778C5.2745 20.0257 0 25.2888 0 33.3119C0 43.389 8.23336 49.9358 18.3964 49.9358C28.5595 49.9358 37.1144 42.9397 37.1144 32.9268C37.1144 28.8832 35.828 25.9949 34.2199 24.0051Z" fill="black"/>
<path d="M99.7652 29.0756C99.7652 30.1025 100.151 30.7444 100.408 31.0011V31.2578H96.2274V31.0011C96.4847 30.6802 96.8706 30.0383 96.8706 29.0756V22.9138C96.8706 21.6301 96.0344 21.0524 95.0696 21.0524C93.8474 21.0524 92.6896 21.8227 92.6896 23.1064V29.0756C92.6896 30.1025 93.0755 30.7444 93.3328 31.0011V31.2578H89.2162V31.0011C89.4735 30.6802 89.8594 30.0383 89.8594 29.0756V22.4645C89.8594 21.1808 89.6664 20.6032 89.1518 20.539C89.0875 20.4748 89.0875 20.4106 89.0875 20.3464L92.3037 19.3195C92.4966 19.7046 92.6253 20.539 92.6896 21.4376C93.8474 20.218 95.3912 19.3195 96.549 19.3195C98.1571 19.3195 99.2506 20.0897 99.7652 21.4376C100.794 20.2822 102.467 19.3195 103.56 19.3195C106.326 19.3195 106.969 21.3734 106.969 22.7213V29.9741C106.969 30.3593 107.227 30.6802 107.484 30.8085V30.9369C107.162 31.1937 106.648 31.322 105.876 31.322C104.782 31.322 103.946 30.7444 103.946 29.7174V22.9138C103.946 21.6301 103.11 21.0524 102.081 21.0524C100.859 21.0524 99.7652 21.8227 99.7652 23.1064V29.0756V29.0756ZM79.632 25.0961C79.632 28.2411 80.9828 29.91 83.2341 29.91C84.8422 29.91 85.9357 29.3965 86.8362 28.8188L87.0935 29.0756C86.5789 30.1667 85.0352 31.6429 82.6552 31.6429C78.5385 31.6429 76.6732 29.1397 76.6732 25.3528C76.6732 21.3734 79.439 19.3836 82.5266 19.3836C85.8714 19.3836 87.2865 21.3092 87.2865 24.0691C87.2865 24.8394 86.9648 25.1603 85.8714 25.1603H79.632V25.0961ZM54.4817 25.0961C54.4817 28.2411 55.8325 29.91 58.0838 29.91C59.6919 29.91 60.8497 29.3965 61.6859 28.8188L61.9432 29.0756C61.4286 30.1667 59.8848 31.6429 57.4405 31.6429C53.3239 31.6429 51.4585 29.1397 51.4585 25.3528C51.4585 21.3734 54.2244 19.3836 57.2476 19.3836C60.5924 19.3836 62.0718 21.3092 62.0718 24.0691C62.0718 24.8394 61.7502 25.1603 60.6567 25.1603H54.4817V25.0961ZM112.565 25.0319C112.565 28.177 113.981 29.8458 116.232 29.8458C117.84 29.8458 118.998 29.3323 119.834 28.6904L120.091 28.9472C119.577 30.0383 118.033 31.5146 115.589 31.5146C111.408 31.5146 109.671 29.0114 109.671 25.2245C109.671 21.245 112.372 19.2553 115.46 19.2553C118.805 19.2553 120.284 21.1808 120.284 23.9408C120.284 24.711 119.963 24.9677 118.869 24.9677H112.565V25.0319ZM122.728 22.4645C122.728 21.1808 122.536 20.6032 122.021 20.539C121.957 20.4748 121.957 20.4106 121.957 20.3464L125.108 19.3195C125.366 19.7687 125.687 20.6673 125.687 21.4376C126.717 20.218 128.196 19.3195 129.482 19.3195C132.184 19.3195 132.827 21.3734 132.827 22.7213V29.9741C132.827 30.3593 133.02 30.7444 133.406 30.8085V30.9369C133.02 31.1937 132.441 31.322 131.798 31.322C130.705 31.322 129.933 30.7444 129.933 29.7174V22.9138C129.933 21.6301 129.096 21.0524 128.067 21.0524C126.845 21.0524 125.752 21.8227 125.752 23.1064V29.0756C125.752 30.1025 126.138 30.7444 126.395 31.0011V31.2578H122.214V31.0011C122.471 30.6802 122.857 30.0383 122.857 29.0756V22.4645H122.728ZM162.416 22.9138C162.03 23.7482 161.708 24.6468 161.322 25.5454C160.229 28.2411 159.007 31.2578 157.592 33.5043C156.369 35.6224 155.083 36.9061 153.539 36.9061C152.381 36.9061 151.738 35.8791 151.481 34.9164L151.738 34.6596C152.188 34.7238 152.896 34.8522 153.282 34.8522C154.89 34.8522 155.662 33.6969 156.755 31.7071C155.726 28.8188 154.44 25.7379 153.346 22.8496C153.282 22.7854 153.218 22.5287 153.218 22.4645C152.896 21.6301 152.446 20.4106 151.738 20.0255V19.8971H155.855V20.1539C155.726 20.2822 155.662 20.4748 155.662 20.7315C155.662 21.1166 155.791 21.8227 156.048 22.5287L158.364 28.6904L160.422 23.6198C160.743 22.9138 160.808 22.2078 160.808 21.6301C160.808 20.9241 160.615 20.4106 160.229 20.218V19.8971H164.024V20.1539C163.638 20.539 163.059 21.4376 162.416 22.9138ZM74.1646 29.0756C74.1646 30.1025 74.5505 30.7444 74.8078 31.0011V31.2578H70.6911V31.0011C70.9484 30.6802 71.3343 30.0383 71.3343 29.0756V17.5865C71.3343 16.2386 71.2057 15.7251 70.6268 15.5967C70.5625 15.5325 70.5625 15.4684 70.5625 15.4042L73.7143 14.4414C73.9716 14.8265 74.1646 15.4684 74.1646 16.4311V29.0756ZM67.475 29.0756C67.475 30.1025 67.8609 30.7444 68.1182 31.0011V31.2578H64.0015V31.0011C64.2588 30.6802 64.6447 30.0383 64.6447 29.0756V17.5865C64.6447 16.2386 64.5161 15.7251 63.9372 15.5967C63.8729 15.5325 63.8729 15.4684 63.8729 15.4042L67.0247 14.4414C67.282 14.8265 67.475 15.4684 67.475 16.4311V29.0756V29.0756ZM134.757 20.0897C136.815 19.9613 138.102 18.2283 138.488 16.4953H139.324V19.9613H141.961V20.7315H139.324V28.4337C139.324 29.589 139.838 30.1025 140.803 30.1025C141.318 30.1025 141.832 29.91 142.218 29.6532C142.283 29.7174 142.283 29.7816 142.347 29.7816C141.832 31.1295 140.546 31.5146 139.324 31.5146C137.587 31.5146 136.494 30.3593 136.494 28.6904V20.7315H134.757V20.0897ZM144.341 22.4645C144.341 21.1808 144.084 20.6032 143.569 20.539C143.505 20.4748 143.505 20.4106 143.505 20.3464L146.528 19.3836C146.85 19.8329 147.171 20.6032 147.171 21.6943C148.007 20.4106 149.294 19.3836 150.645 19.3836C150.838 19.3836 151.031 19.4478 151.224 19.4478C151.159 20.4106 150.966 21.4376 150.902 22.3361H150.773C150.516 21.8868 150.002 21.3734 149.294 21.3734C148.007 21.3734 147.236 22.272 147.236 23.4273V29.0114C147.236 30.0383 147.622 30.6802 147.879 30.9369V31.1937H143.698V30.9369C143.955 30.616 144.405 29.9741 144.405 29.0114V22.4645H144.341ZM58.5984 24.1333C59.1129 24.1333 59.3059 23.9408 59.3059 23.3631C59.3059 21.951 58.92 20.1539 57.1833 20.1539C55.1892 20.1539 54.546 22.5929 54.546 24.1333H58.5984ZM116.746 24.0691C117.261 24.0691 117.454 23.9408 117.454 23.2989C117.454 21.8868 117.068 20.0897 115.331 20.0897C113.273 20.0897 112.63 22.4645 112.63 24.0691H116.746ZM83.7487 24.0691C84.2633 24.0691 84.4562 23.9408 84.4562 23.2989C84.4562 21.8868 84.0703 20.0897 82.3336 20.0897C80.3396 20.0897 79.6963 22.4645 79.6963 24.0691H83.7487Z" fill="black"/>
</svg>
