<svg width="177" height="18" viewBox="0 0 177 18" fill="none" xmlns="http://www.w3.org/2000/svg">
<path d="M3.2087 4.30456L3.28696 10.1741H3.36522C3.75652 9.6263 4.46087 9.31326 5.32174 9.31326L10.8 9.23499V11.8959H5.16522C4.46087 11.8959 3.91304 12.0524 3.67826 12.4437C3.44348 12.835 3.28696 13.3828 3.28696 14.1654V18.0002H0.156522L0 1.72195L13.0696 1.56543V4.2263L3.2087 4.30456Z" fill="black"/>
<path d="M25.0435 17.8433L23.087 13.3825H18.4696C17.687 13.3825 16.9827 13.539 16.5131 13.852C16.0435 14.1651 15.6522 14.6346 15.3392 15.2607L14.0087 17.9216H10.8L17.8435 1.48682H20.8174L28.2522 17.7651L25.0435 17.8433ZM21.9131 10.7999L19.9566 6.33899C19.7218 5.86942 19.5653 5.3216 19.4087 4.77377H19.3305C19.2522 5.16508 19.0957 5.7129 18.8609 6.33899L16.8261 11.4259H16.9044C17.4522 11.0346 18.1566 10.7999 18.8609 10.7999H21.9131Z" fill="black"/>
<path d="M32.1653 16.9043C30.9131 16.1999 29.974 15.1825 29.1914 13.9303C28.487 12.6782 28.0957 11.1912 28.0957 9.626C28.0957 8.06078 28.4087 6.57383 29.1131 5.32165C29.8174 4.06948 30.7566 3.05209 32.0087 2.26948C33.2609 1.56513 34.6696 1.17383 36.2348 1.17383C37.8001 1.17383 39.287 1.48687 40.5392 2.19122C41.7914 2.89557 42.8087 3.8347 43.5914 5.00861L41.087 6.57383C39.9131 4.85209 38.2696 3.99122 36.3131 3.99122C35.2957 3.99122 34.4348 4.226 33.7305 4.69557C32.9479 5.16513 32.4001 5.79122 32.0087 6.65209C31.6174 7.51296 31.3827 8.45209 31.3827 9.54774C31.3827 10.6434 31.6174 11.5825 32.087 12.4434C32.5566 13.3043 33.1044 13.9304 33.887 14.3999C34.6696 14.8695 35.5305 15.1043 36.4696 15.026C38.5044 15.026 40.0696 14.0869 41.2435 12.2086L43.7479 13.6956C43.0435 14.9477 42.1044 16.0434 40.774 16.7477C39.5218 17.5304 38.0348 17.9217 36.4696 17.9217C34.8261 17.9999 33.4174 17.6086 32.1653 16.9043Z" fill="black"/>
<path d="M48.9131 3.83483L48.9914 8.68701H49.0697C49.2262 8.45222 49.461 8.2957 49.8523 8.13918C50.1653 7.98266 50.5566 7.9044 51.1045 7.9044L56.2697 7.82614V10.487H50.9479C50.2436 10.487 49.6958 10.7218 49.461 11.1131C49.2262 11.5044 49.0697 12.0522 49.0697 12.8348V14.9479L58.774 14.8696V17.5305L49.0697 17.6087H45.9392L45.7827 1.25222L58.6175 1.0957V3.75657L48.9131 3.83483Z" fill="black"/>
<path d="M63 16.7477C61.7478 16.1216 60.8087 15.2607 60.1826 14.2433L62.687 12.6781C63.9391 14.2433 65.5044 14.9477 67.5391 14.9477C68.6348 14.9477 69.4957 14.7129 70.0435 14.3216C70.5913 13.9303 70.9044 13.3824 70.9044 12.6781C70.9044 12.1303 70.6696 11.739 70.2783 11.4259C69.887 11.1129 69.1826 10.8781 68.2435 10.7998L65.8174 10.4868C64.1739 10.252 62.9217 9.70418 62.0609 8.92157C61.2 8.13897 60.7304 7.04331 60.7304 5.79114C60.7304 4.85201 60.9652 3.99114 61.513 3.28679C62.0609 2.58244 62.7652 1.95636 63.7044 1.56505C64.6435 1.17375 65.7391 0.938965 66.9913 0.938965C68.4 0.938965 69.6522 1.17375 70.7478 1.72157C71.8435 2.2694 72.7826 2.97375 73.487 3.91288L70.9826 5.47809C70.4348 4.85201 69.887 4.38244 69.1826 4.0694C68.4783 3.75636 67.6957 3.59983 66.9131 3.59983C65.9739 3.59983 65.2696 3.83462 64.7217 4.14766C64.1739 4.53897 63.9391 5.00853 63.9391 5.55636C63.9391 6.10418 64.1739 6.49549 64.487 6.73027C64.8783 6.96505 65.5044 7.19983 66.4435 7.35636L68.8696 7.74766C70.6696 7.98244 71.9217 8.53027 72.7826 9.39114C73.6435 10.252 74.0348 11.3477 74.0348 12.5998C74.0348 13.539 73.8 14.3998 73.2522 15.1824C72.7044 15.9651 72 16.5129 70.9826 16.9824C69.9652 17.3737 68.8696 17.6085 67.5391 17.6085C65.8174 17.6868 64.2522 17.3737 63 16.7477Z" fill="black"/>
<path d="M80.374 16.4347C79.1218 15.7303 78.1827 14.7912 77.4783 13.4608C76.774 12.2086 76.4609 10.7216 76.4609 9.07815C76.4609 7.43467 76.774 5.94772 77.4001 4.69554C78.0262 3.44337 78.9653 2.42598 80.2175 1.72163C81.3914 1.01728 82.8001 0.625977 84.3653 0.625977C86.0088 0.625977 87.4175 0.939019 88.6696 1.64337C89.9218 2.34772 90.9392 3.36511 91.5653 4.61728L89.9218 5.55641C89.374 4.53902 88.5914 3.75641 87.6522 3.20858C86.7131 2.66076 85.6175 2.42598 84.3653 2.42598C83.1914 2.42598 82.0957 2.73902 81.2348 3.28685C80.2957 3.83467 79.6696 4.61728 79.1218 5.63467C78.6522 6.65206 78.4175 7.82598 78.4175 9.07815C78.4175 10.3303 78.7305 11.5042 79.2001 12.5216C79.7479 13.539 80.4522 14.3216 81.3131 14.8695C82.2522 15.4173 83.2696 15.7303 84.4435 15.6521C85.6957 15.6521 86.7914 15.339 87.7305 14.7912C88.6696 14.2434 89.4522 13.3825 90.0001 12.2868L91.6435 13.1477C91.0175 14.4782 90.0783 15.4955 88.8262 16.2782C87.574 17.0608 86.1653 17.4521 84.5218 17.4521C83.0348 17.4521 81.6262 17.139 80.374 16.4347Z" fill="#979797"/>
<path d="M106.748 16.9825L104.322 11.426H99.8608C98.8434 11.426 98.0608 11.6608 97.4347 12.0521C96.8086 12.4434 96.3391 13.1477 95.8695 14.0868L94.6173 17.0608H92.5825L99.626 0.625977H101.504L108.783 16.9042L106.748 16.9825ZM103.617 9.86076L101.739 5.55641C101.348 4.61728 100.956 3.75641 100.643 2.89554H100.565C100.252 3.75641 99.939 4.61728 99.5477 5.55641L97.4347 10.7216L97.513 10.7999C98.139 10.2521 98.9217 9.93902 99.939 9.93902L103.617 9.86076Z" fill="#979797"/>
<path d="M112.774 16.9828H110.817L110.661 0.626249H112.539L123.183 13.7741H123.261C123.261 13.3828 123.183 12.6002 123.183 11.5045L123.104 0.469727H125.061L125.217 16.8262H123.339L112.696 3.60016H112.617C112.617 3.99147 112.696 4.77407 112.696 5.86973L112.774 16.9828Z" fill="#979797"/>
<path d="M141.339 16.6695L138.913 11.113H134.452C133.435 11.113 132.652 11.3478 132.026 11.7391C131.4 12.1304 130.93 12.8347 130.461 13.7739L129.209 16.7478H127.174L134.217 0.312988H136.096L143.374 16.5912L141.339 16.6695ZM138.209 9.46951L136.33 5.16516C135.939 4.22603 135.548 3.36516 135.235 2.50429H135.156C134.843 3.36516 134.53 4.22603 134.139 5.16516L132.026 10.3304L132.104 10.4086C132.73 9.86081 133.513 9.54777 134.53 9.54777L138.209 9.46951Z" fill="#979797"/>
<path d="M155.113 1.17364C156.6 1.87799 157.774 2.81712 158.557 3.99103C159.339 5.24321 159.73 6.6519 159.73 8.21712C159.73 9.8606 159.417 11.2693 158.635 12.5215C157.852 13.7736 156.757 14.7128 155.27 15.4171C153.783 16.1215 151.983 16.5128 149.791 16.5128L145.565 16.591L145.409 0.234511L149.635 0.15625C151.826 0.234511 153.626 0.547554 155.113 1.17364ZM155.661 13.0693C157.07 11.9736 157.774 10.4084 157.774 8.37364C157.774 6.33886 156.991 4.77364 155.583 3.67799C154.174 2.58234 152.139 2.11277 149.635 2.11277H147.365L147.522 14.791H149.791C152.296 14.7128 154.252 14.1649 155.661 13.0693Z" fill="#979797"/>
<path d="M174.131 16.3565L171.704 10.8H167.244C166.226 10.8 165.444 11.0348 164.818 11.4261C164.191 11.8174 163.722 12.5217 163.252 13.4609L162 16.4348H159.965L167.009 0H168.887L176.165 16.2783L174.131 16.3565ZM170.922 9.15652L169.044 4.85217C168.652 3.91304 168.261 3.05217 167.948 2.1913H167.87C167.557 3.05217 167.244 3.91304 166.852 4.85217L164.739 10.0174L164.818 10.0957C165.444 9.54783 166.226 9.23478 167.244 9.23478L170.922 9.15652Z" fill="#979797"/>
</svg>
