<svg width="137" height="102" viewBox="0 0 137 102" fill="none" xmlns="http://www.w3.org/2000/svg">
<path d="M52.0327 13.1155L53.5945 16.7769L67.3493 11.7493L65.2121 6.72168L52.0327 13.1155Z" fill="#979797"/>
<path d="M45.3472 14.8368L49.238 15.8205L53.5398 1.96727L48.1968 0.601074L45.3472 14.8368Z" fill="black"/>
<path d="M57.6494 20.0285L60.0058 23.2527L72.2536 15.2741L69.0204 10.875L57.6494 20.0285Z" fill="black"/>
<path d="M62.5542 25.9302L64.39 29.4823L77.7064 23.4164L75.1856 18.5801L62.5542 25.9302Z" fill="black"/>
<path d="M65.5684 32.3514L66.5274 36.2314L80.9124 33.4444L79.5972 28.1436L65.5684 32.3514Z" fill="black"/>
<path d="M66.8013 39.1006L66.7739 43.0625L81.4055 43.8276L81.4603 38.4175L66.8013 39.1006Z" fill="black"/>
<path d="M65.6504 46.0679L64.4448 49.8659L78.2544 54.7842L79.871 49.5653L65.6504 46.0679Z" fill="black"/>
<path d="M63.1298 52.5439L61.02 55.9321L73.1582 64.1019L76.0352 59.4569L63.1298 52.5439Z" fill="black"/>
<path d="M58.8006 58.1177L55.7866 60.7408L64.993 72.0255L69.103 68.4188L58.8006 58.1177Z" fill="black"/>
<path d="M53.3476 62.4077L49.813 64.2657L56.0602 77.3812L60.9374 74.8401L53.3476 62.4077Z" fill="black"/>
<path d="M47.4569 65.0854L43.4839 65.7685L45.4019 80.1682L50.7997 79.2119L47.4569 65.0854Z" fill="black"/>
<path d="M40.3601 66.0418L36.3323 65.7959L34.7705 80.2229L40.2779 80.5508L40.3601 66.0418Z" fill="black"/>
<path d="M33.4826 65.2223L29.6466 64.02L24.5776 77.6273L29.811 79.2667L33.4826 65.2223Z" fill="black"/>
<path d="M27.0712 62.4349L23.7832 60.1396L14.7686 71.5883L19.2622 74.7306L27.0712 62.4349Z" fill="black"/>
<path d="M21.6185 58.0632L19.0155 55.0303L7.39795 63.8832L10.9599 68.0364L21.6185 58.0632Z" fill="black"/>
<path d="M17.4537 51.97L15.8646 48.3086L2.16455 53.4455L4.32915 58.4457L17.4537 51.97Z" fill="black"/>
<path d="M15.1522 45.4669L14.6042 41.5322L0 42.8438L0.7398 48.2266L15.1522 45.4669Z" fill="black"/>
<path d="M14.7688 38.4445L15.2894 34.5099L0.849607 31.9961L0.137207 37.4062L14.7688 38.4445Z" fill="black"/>
<path d="M16.2481 31.2311L17.7825 27.5697L4.54833 21.3672L2.41113 26.3675L16.2481 31.2311Z" fill="black"/>
<path d="M19.2894 25.1927L21.9198 22.187L11.316 12.1592L7.69922 16.2578L19.2894 25.1927Z" fill="black"/>
<path d="M23.9751 20.2744L27.3727 18.1159L20.0295 5.54688L15.3989 8.49785L23.9751 20.2744Z" fill="black"/>
<path d="M30.4962 16.859L34.3322 15.6295L30.4688 1.63965L25.2354 3.3064L30.4962 16.859Z" fill="black"/>
<path d="M37.9215 14.6183L41.9493 14.509L42.1685 0L36.6885 0.163943L37.9215 14.6183Z" fill="black"/>
<path d="M18.3579 83.939H21.4267V90.0868C22.2487 89.2125 23.3995 88.748 24.6051 88.7753C27.2629 88.7753 29.2083 90.8246 29.2083 93.4477C29.2083 96.0708 27.2629 98.12 24.4681 98.12C23.3173 98.1747 22.1939 97.7102 21.3993 96.8358V97.9015H18.3579V96.5626H19.7279V85.2778H18.3579V83.939ZM24.3585 96.7539C26.0573 96.7539 27.4273 95.415 27.4273 93.475C27.4273 91.5896 26.1669 90.2235 24.3585 90.2235C22.6597 90.2235 21.2897 91.535 21.2897 93.475C21.2897 95.415 22.6871 96.7539 24.3585 96.7539Z" fill="black"/>
<path d="M36.0583 88.7754C36.1679 88.7754 36.3049 88.8027 36.4419 88.8027V90.3055H35.9761C34.1951 90.3055 33.0717 91.2619 33.0717 93.0379V96.6173H34.4691V97.9562H30.0029V96.6173H31.4003V90.3875H30.0029V89.0486H33.0717V90.4695C33.7293 89.2945 34.6335 88.7754 36.0583 88.7754Z" fill="black"/>
<path d="M41.5385 98.1748C38.7437 98.1748 36.7983 96.3441 36.7983 93.3931C36.7983 90.6334 38.6615 88.8027 41.5659 88.8027C44.3607 88.8027 46.3335 90.7154 46.3335 93.7484V93.9669H38.5519C38.6889 95.661 40.0315 96.754 41.7851 96.754C42.9085 96.754 43.9497 96.2075 44.5525 95.2785H46.1143C45.2923 97.0819 43.4839 98.2021 41.5385 98.1748ZM44.5799 92.6554C44.3333 91.016 43.2647 90.1416 41.5659 90.1416C39.8671 90.1416 38.7985 91.016 38.5519 92.6554H44.5799Z" fill="black"/>
<path d="M58.2523 96.59V97.9289H55.1835V96.754C54.4437 97.6557 53.3477 98.1202 52.0051 98.1202C49.4843 98.1475 47.4293 96.1255 47.4019 93.6117C47.4019 93.5571 47.4019 93.5024 47.4019 93.4478C47.4019 90.8247 49.3747 88.7754 52.0051 88.7754C53.2107 88.7208 54.3889 89.2399 55.1835 90.1689V88.994H58.2523V90.3329H56.8823V96.5627L58.2523 96.59ZM52.2243 96.7813C53.9231 96.7813 55.2931 95.4698 55.2931 93.5024C55.2931 91.5351 53.9231 90.2509 52.2243 90.2509C50.3885 90.2509 49.1555 91.6171 49.1555 93.5024C49.1555 95.4151 50.5255 96.754 52.2243 96.7813Z" fill="black"/>
<path d="M59.3486 85.3052V83.939H62.3626V93.0378L65.7328 90.3874H64.4998V89.0485H68.7742V90.3874H67.7878L64.2806 93.2018L67.7056 96.5899H68.7742V97.9288H64.582V96.5899H65.678L62.3626 93.3384V96.5899H63.5134V97.9288H59.3486V96.5899H60.746V85.3052H59.3486Z" fill="black"/>
<path d="M72.6102 95.0869C72.6102 96.3438 72.6376 96.5897 73.6514 96.5897C73.761 96.5897 74.0076 96.5624 74.3912 96.4804V97.9013C73.9254 97.9833 73.4596 98.0106 72.9664 98.0106C71.5416 98.0106 71.021 97.628 71.021 96.2892V90.3599H69.377V89.021H70.9936V85.7148H72.5828V89.021H74.3638V90.3599H72.5828L72.6102 95.0869Z" fill="black"/>
<path d="M85.9811 96.5899V97.9288H81.5149V96.5899H82.9123V92.5733C82.9123 91.2071 82.8027 90.3054 81.3231 90.3054C80.3641 90.3054 79.4599 90.7972 78.5009 91.8082V96.5626H79.8983V97.9014H75.4321V96.5626H76.8021V85.2778H75.4321V83.9116H78.5009V90.2508C79.5421 89.2398 80.5833 88.7479 81.7889 88.7479C82.8575 88.7479 83.6521 89.1305 84.1453 89.7863C84.5837 90.3874 84.6111 91.0431 84.6111 91.7536V96.5352L85.9811 96.5899Z" fill="black"/>
<path d="M92.968 88.7754C93.0776 88.7754 93.2146 88.8027 93.3516 88.8027V90.3055H92.8858C91.1048 90.3055 89.9814 91.2619 89.9814 93.0379V96.6173H91.3788V97.9562H86.9126V96.6173H88.31V90.3875H86.9126V89.0486H89.9814V90.4695C90.639 89.2945 91.5432 88.7754 92.968 88.7754Z" fill="black"/>
<path d="M98.5306 88.8027C101.38 88.8027 103.463 90.852 103.463 93.4751C103.463 96.0982 101.38 98.1475 98.5306 98.1475C95.681 98.1475 93.5986 96.0982 93.5986 93.4751C93.5986 90.852 95.681 88.8027 98.5306 88.8027ZM98.5306 96.754C100.284 96.754 101.709 95.4424 101.709 93.4751C101.709 91.5078 100.284 90.1963 98.5306 90.1963C96.777 90.1963 95.3522 91.5624 95.3522 93.4751C95.3522 95.3878 96.777 96.754 98.5306 96.754Z" fill="black"/>
<path d="M103.901 90.3872V89.0483H106.97V94.4038C106.97 95.77 107.079 96.6717 108.559 96.6717C109.518 96.6717 110.422 96.1525 111.381 95.1689V90.4145H109.984V89.0757H113.052V96.6171H114.422V97.9832H111.354V96.699C110.312 97.71 109.271 98.2018 108.066 98.2018C106.011 98.2018 105.243 97.1089 105.243 95.0049V90.4145H103.901V90.3872Z" fill="black"/>
<path d="M124.561 96.8903C124.561 98.2018 124.533 99.2674 124.122 100.06C123.465 101.262 121.985 102 120.012 102C117.765 102 116.176 100.989 115.573 99.2128H117.354C117.738 100.114 118.642 100.579 119.985 100.579C122.177 100.579 122.862 99.6773 122.862 97.71V96.8356C122.095 97.71 120.971 98.1745 119.793 98.1198C116.998 98.1198 115.053 96.0705 115.053 93.4474C115.053 90.8244 117.026 88.7751 119.683 88.7751C120.889 88.7477 122.04 89.2123 122.862 90.0866V89.021H125.931V90.3599H124.561V96.8903ZM119.93 96.7536C121.629 96.7536 122.999 95.4421 122.999 93.4748C122.999 91.5075 121.629 90.2232 119.93 90.2232C118.094 90.2232 116.861 91.5894 116.861 93.4748C116.861 95.4148 118.231 96.7536 119.93 96.7536Z" fill="black"/>
<path d="M137 96.5899V97.9288H132.534V96.5899H133.931V92.5733C133.931 91.2071 133.822 90.3054 132.342 90.3054C131.383 90.3054 130.479 90.7972 129.52 91.8082V96.5626H130.917V97.9014H126.451V96.5626H127.821V85.2778H126.451V83.9116H129.52V90.2508C130.561 89.2398 131.602 88.7479 132.808 88.7479C133.877 88.7479 134.671 89.1305 135.164 89.7863C135.603 90.3874 135.63 91.0431 135.63 91.7536V96.5352L137 96.5899Z" fill="black"/>
</svg>
