<svg width="94" height="71" viewBox="0 0 94 71" fill="none" xmlns="http://www.w3.org/2000/svg">
<path d="M50.1982 6.08941C50.3766 6.19904 50.5451 6.31864 50.6938 6.45817C50.793 6.55783 50.8822 6.65749 50.9813 6.76712C51.1498 6.97641 51.3183 7.2156 51.467 7.48469C51.477 7.50463 51.4869 7.51459 51.4968 7.53453C51.5265 7.59432 51.5563 7.65412 51.586 7.71392C51.6356 7.80362 51.6851 7.89331 51.7347 7.99298C51.8834 8.30193 53.1523 10.365 53.3307 10.6241C53.3505 10.654 53.3902 10.7038 53.41 10.7337C53.6777 11.1124 54.0742 11.6207 54.5302 12.1788C54.9366 12.6771 55.3827 13.2153 55.8288 13.7336C55.9081 13.8233 55.9874 13.9229 56.0667 14.0126C56.4533 14.4611 56.83 14.8897 57.1571 15.2584C58.0394 15.378 58.9217 15.5076 59.7841 15.6471C67.2387 16.8929 74.0787 19.2449 79.7292 22.5737C88.641 27.8359 93.548 34.8721 93.548 42.4066C93.548 49.9411 88.641 56.9873 79.7391 62.2296C71.0156 67.3722 59.4471 70.2026 47.1549 70.2026C43.4969 70.2026 39.8489 69.9435 36.31 69.4452C36.082 69.5449 35.8341 69.6545 35.5764 69.7741C34.8131 70.1329 34.0101 70.4917 33.2667 70.6711C32.3646 70.8903 31.4922 71 30.6694 71C30.5207 71 30.382 71 30.2432 70.99C27.9037 70.8804 26.0599 69.3954 25.1379 66.8938C10.08 62.0502 0.761719 52.7018 0.761719 42.4066C0.761719 34.8721 5.66869 27.8359 14.5706 22.5836C20.0823 19.3346 26.724 17.0125 33.9705 15.7468C34.3373 15.677 34.714 15.6272 35.0907 15.5674C35.0807 15.4876 35.0708 15.4179 35.0609 15.3481C35.051 15.2783 35.0411 15.2285 35.0312 15.1787C35.0213 15.1089 35.0114 15.0591 35.0014 15.0392C35.0014 15.0192 34.9915 15.0093 34.9915 15.0093C34.9915 14.9893 34.9816 14.9794 34.9816 14.9594C34.9519 14.8 34.9321 14.6405 34.9122 14.481C34.8131 13.7236 34.7536 12.9761 34.7338 12.5775C34.7239 12.408 34.714 12.3084 34.714 12.2885V12.1988V12.129C34.714 12.0991 34.714 12.0592 34.714 12.0293C34.7041 11.8898 34.7041 11.7503 34.6941 11.6107C34.6842 10.7437 34.7834 9.89654 34.9816 9.0793C34.9915 9.02947 35.0213 8.97964 35.0312 8.91984C35.2294 8.1624 35.507 7.4249 35.8738 6.74719C36.3794 5.82032 37.0435 5.15258 37.6879 4.51474C37.9258 4.27554 38.1538 4.04632 38.3719 3.80713C38.4512 3.7274 38.5305 3.6377 38.5999 3.55797L38.6197 3.52807L38.6594 3.47824C38.7585 3.35864 38.8576 3.23905 38.9468 3.12942C38.9468 3.12942 38.9468 3.11945 38.9568 3.11945C38.9568 3.10949 38.9667 3.10949 38.9667 3.10949C39.046 3.00982 39.1154 2.92013 39.1649 2.85036C39.2839 2.68094 39.3731 2.53144 39.4326 2.41185C39.4921 2.30222 39.5317 2.21252 39.5615 2.14276C39.5515 2.13279 39.5416 2.12282 39.5317 2.11286C39.5119 2.09292 39.502 2.07299 39.4722 2.04309C39.155 1.67434 39.0757 1.15609 39.274 0.717574C39.2938 0.667742 39.3335 0.617911 39.3632 0.568079C39.3929 0.518248 39.4227 0.45845 39.4623 0.418585C39.6903 0.159461 40.0274 0 40.3842 0H40.3941C41.0484 0.0099663 41.6234 0.0697641 42.1289 0.159461C42.466 0.219259 42.7832 0.308955 43.0608 0.398652C43.1995 0.448484 43.3383 0.498315 43.4672 0.548147C43.7249 0.657776 43.9529 0.777372 44.1611 0.896967C44.3693 1.02653 44.5477 1.15609 44.7162 1.29562C44.8649 1.42518 45.0037 1.55474 45.1227 1.69427C45.1326 1.70424 45.1425 1.7142 45.1425 1.7142C45.1722 1.75407 45.202 1.78397 45.2317 1.82383C45.2615 1.8637 45.2912 1.8936 45.3209 1.93346C45.3309 1.94343 45.3309 1.9534 45.3408 1.96336C45.4895 2.16269 45.6084 2.35205 45.6976 2.53144C46.3916 2.60121 47.0062 2.80053 47.5216 3.10949C47.5811 3.14935 47.6406 3.19918 47.7001 3.23905C47.8091 3.30881 47.9083 3.37858 48.0074 3.45831C48.2949 3.70747 48.5427 4.00645 48.741 4.34531C48.7905 4.42504 48.8401 4.50477 48.8797 4.59447C48.9491 4.74396 49.0185 4.89346 49.078 5.05292C49.1474 5.24228 49.197 5.4416 49.2465 5.65089C49.5142 5.73062 49.7521 5.84025 49.9702 5.95985L50.1982 6.08941Z" fill="white"/>
<path d="M58.2576 17.7898C58.2377 17.6901 58.1981 17.6004 58.1485 17.5107C57.9998 17.1619 57.6727 16.8729 57.177 16.6536C57.0878 16.6237 56.7706 16.4543 56.5029 16.2948C56.3245 16.1951 56.1758 16.0955 56.1263 16.0357C55.8883 15.7666 55.5909 15.4277 55.2638 15.049C54.9367 14.6703 54.5897 14.2617 54.2329 13.8331C53.4795 12.9262 52.7261 11.9993 52.28 11.3615C52.1313 11.1522 50.7633 8.94964 50.5749 8.55099C50.337 8.04271 50.0694 7.65403 49.7918 7.38494C49.5142 7.10588 49.1078 6.91652 48.5527 6.78696C48.4734 6.77699 48.3048 6.74709 48.0471 6.74709C47.4721 6.74709 46.5106 6.85672 45.1921 7.37497L45.0038 7.44473L45.1227 7.28527C45.1525 7.25537 45.7572 6.48797 48.0471 6.25874C48.0372 6.17901 48.0273 6.10925 48.0174 6.03948C47.9876 5.84016 47.9381 5.64083 47.8687 5.46144C47.72 5.04285 47.4821 4.68407 47.1748 4.42494C46.6692 3.99639 45.9654 3.77713 45.0732 3.77713C45.0335 3.77713 44.984 3.77713 44.9443 3.77713C44.5379 3.79707 43.8737 3.88676 42.9716 4.19572L42.7337 4.27545L42.9121 4.09606C42.932 4.07612 43.4574 3.57781 44.6469 3.32865C44.0422 1.56461 41.6333 1.29552 40.5033 1.26562C40.9989 1.87357 40.8601 2.25229 40.8007 2.44165L40.7907 2.46158C40.6718 2.79047 40.4735 3.16919 40.196 3.57781C40.0671 3.76717 39.8589 4.01632 39.621 4.29538L39.5516 4.37511C39.2344 4.75383 38.8973 5.09269 38.5603 5.42157C37.9556 6.01955 37.3906 6.58763 36.9742 7.35504C36.2902 8.62076 35.9333 10.0858 35.9532 11.5907C35.9532 11.7402 35.9631 11.8997 35.973 12.0492L35.9829 12.2186C35.9829 12.2286 36.0325 13.2651 36.1713 14.2816C36.1911 14.4411 36.2109 14.5906 36.2406 14.7401C36.2406 14.7401 36.2902 14.9892 36.3497 15.3679C36.3893 15.6769 36.4389 16.0556 36.4686 16.4742C36.4786 16.5838 36.4786 16.6935 36.4885 16.8031C36.5083 17.3811 36.4587 18.0289 36.429 18.3678C36.2704 20.072 35.8342 21.6268 35.5566 22.5536C35.9928 22.0753 36.5777 21.567 37.3212 21.0587C39.3434 19.6136 42.4561 18.2283 45.8662 17.2715L45.9257 17.2516L45.9654 17.2416L46.005 17.2316L46.0546 17.2117C47.5713 16.7832 49.0384 16.4742 50.4064 16.2948C51.3382 16.1752 52.2007 16.1055 52.9838 16.1055C53.1722 16.1055 53.3605 16.1055 53.5489 16.1154C53.876 16.1254 54.1833 16.1553 54.4708 16.1951C55.1349 16.2848 55.6802 16.4343 56.0866 16.6536C56.6021 16.9227 56.8995 17.2815 56.949 17.72C57.1869 19.5937 53.1127 22.4341 47.4622 24.3376C47.264 24.4074 47.1252 24.4572 47.0261 24.4871C47.3829 24.4173 47.9777 24.2778 48.6915 24.0885C49.0285 23.9988 51.0607 23.3709 51.8835 23.052C52.7756 22.7031 53.5885 22.3643 53.876 22.2148C56.8896 20.6501 58.5351 18.9957 58.2576 17.7898Z" fill="black"/>
<path d="M45.7278 23.939C51.517 22.2647 56.2555 19.5638 55.9977 18.019C55.74 16.4742 50.6149 16.7832 44.8653 18.617C39.433 20.3511 35.4281 22.8128 35.6462 24.2081C35.8742 25.6133 40.2657 25.5237 45.7278 23.939ZM43.1603 20.3711C43.646 20.1817 44.1516 20.0023 44.6671 19.8329C46.0846 19.3645 47.4626 19.0157 48.7612 18.7565C48.781 18.8562 48.7909 18.9559 48.8008 19.0655C48.8702 19.6435 48.781 20.2116 48.553 20.7199C48.4935 20.8495 48.4142 20.9591 48.3349 21.0787C47.9582 21.6567 47.3932 22.1152 46.6794 22.3145C45.8467 22.5437 45.0041 22.3942 44.33 21.9756C44.221 21.9059 44.1119 21.8262 44.0128 21.7365C43.5965 21.3976 43.2693 20.9491 43.0909 20.401C43.1008 20.391 43.1306 20.381 43.1603 20.3711Z" fill="black"/>
<path d="M91.9322 38.3406C91.7042 37.4536 91.3969 36.5865 91.0301 35.7394C90.0983 33.6066 88.7303 31.5735 86.9856 29.6898C86.2917 28.9324 85.5284 28.1949 84.7155 27.4873C83.9026 26.7797 83.0303 26.092 82.1084 25.4342C80.2645 24.1087 78.2026 22.9028 75.9722 21.8164C74.852 21.2683 73.6922 20.76 72.4828 20.2816C71.2734 19.8032 70.0343 19.3548 68.7456 18.9461C67.4668 18.5375 66.1384 18.1588 64.7902 17.82C63.4322 17.4811 62.0443 17.1821 60.6268 16.923C60.5871 16.913 60.5475 16.913 60.4979 16.9031C60.0518 16.8233 59.5958 16.7436 59.1299 16.6738C59.1894 16.7635 59.2488 16.8532 59.2885 16.9529C59.3777 17.1323 59.4471 17.3117 59.4868 17.501C59.804 18.8664 58.9614 20.1321 57.7321 21.1985C56.156 22.5639 53.9454 23.6203 52.6368 24.1785C51.249 24.7764 49.7422 25.3046 48.1859 25.7531C45.1227 26.6302 41.8217 27.2481 38.6297 27.2082C36.9048 27.1783 34.1391 26.8295 33.7921 24.6469C33.693 24.0489 33.802 23.4908 34.03 22.9825C34.0399 22.9526 34.0697 22.8828 34.1093 22.7832C34.149 22.6636 34.2084 22.5141 34.258 22.3746C34.3076 22.2251 34.3472 22.0955 34.377 22.0058C34.3968 21.946 34.4067 21.8862 34.4265 21.8364C34.4761 21.657 34.5356 21.4577 34.5851 21.2583C34.5951 21.2085 34.605 21.1686 34.6248 21.1188C34.6843 20.8995 34.7437 20.6604 34.7933 20.4112C34.8032 20.3514 34.8231 20.2816 34.833 20.2119C34.8924 19.9428 34.942 19.6637 34.9916 19.3747C35.0015 19.3149 35.0114 19.2551 35.0213 19.2053C35.0709 18.8963 35.1105 18.5774 35.1403 18.2485C35.1502 18.1887 35.1502 18.099 35.1601 17.9993C35.1799 17.6904 35.2097 17.2419 35.1997 16.8532C35.1997 16.7934 35.1898 16.7336 35.1898 16.6738C34.8131 16.7336 34.4364 16.7934 34.0697 16.8632C33.9408 16.8831 33.802 16.9031 33.6731 16.933C32.2556 17.1921 30.8677 17.4911 29.5097 17.8299C28.1516 18.1688 26.8331 18.5475 25.5543 18.9561C24.2756 19.3647 23.0265 19.8132 21.8171 20.2916C20.6077 20.77 19.4479 21.2882 18.3277 21.8264C17.2075 22.3746 16.1369 22.9426 15.1159 23.5506C14.0948 24.1585 13.1134 24.7864 12.1915 25.4442C11.2696 26.102 10.3973 26.7896 9.58439 27.4972C8.77152 28.2048 8.00821 28.9424 7.3143 29.6998C5.5696 31.5934 4.20159 33.6165 3.26977 35.7493C2.89307 36.6064 2.59568 37.4735 2.36768 38.3505C2.02072 39.6761 1.84229 41.0315 1.84229 42.4168C1.84229 52.6522 11.6265 61.5421 25.9707 66.017C26.2086 66.7944 26.5456 67.5219 27.0016 68.1299C27.765 69.1464 28.8455 69.8241 30.263 69.8939C30.3919 69.9039 30.5109 69.9039 30.6397 69.9039C31.3733 69.9039 32.1664 69.8042 32.9792 69.6049C33.2271 69.5451 33.4848 69.4554 33.7524 69.3557C34.5554 69.0468 35.4377 68.5883 36.1316 68.3093C37.0138 68.4388 37.906 68.5484 38.7982 68.6481C41.4945 68.9471 44.2801 69.0966 47.1153 69.0966C47.8984 69.0966 48.6716 69.0866 49.4448 69.0667C50.9913 69.0169 52.508 68.9272 54.0147 68.7976C56.265 68.5983 58.4558 68.2993 60.5871 67.9006C62.0047 67.6415 63.3925 67.3425 64.7506 67.0037C66.1087 66.6648 67.4271 66.2861 68.7059 65.8775C69.9847 65.4689 71.2337 65.0204 72.4431 64.542C73.6525 64.0636 74.8124 63.5454 75.9325 63.0072C78.1729 61.9209 80.2249 60.705 82.0687 59.3894C82.9906 58.7316 83.863 58.044 84.6759 57.3364C85.4887 56.6287 86.252 55.8912 86.946 55.1338C88.6907 53.2402 90.0587 51.217 90.9905 49.0843C91.3672 48.2272 91.6646 47.3601 91.8926 46.483C92.2395 45.1575 92.418 43.8021 92.418 42.4168C92.4477 41.0315 92.2693 39.6661 91.9322 38.3406Z" fill="black"/>
<path d="M24.355 28.5833C24.355 27.0186 23.6214 26.2014 22.6301 26.3409C18.7838 26.8691 16.6922 35.1611 16.6823 38.8586C16.6426 42.8252 18.5757 44.5593 20.935 44.2404C22.4616 44.0311 24.1964 43.2238 25.723 40.5429C26.7936 41.111 25.8023 47.9379 19.448 48.775C15.6612 49.3132 11.9835 46.5326 11.9141 40.9814C11.8744 33.2276 16.5236 25.0752 23.2051 24.2081C26.3178 23.7995 29.0637 25.6433 28.9249 29.5201C28.8357 31.8224 27.0711 33.0084 25.5148 33.1578C24.5631 33.2475 23.3835 32.6795 23.1357 31.8024C23.9188 31.2543 24.3649 29.6696 24.355 28.5833Z" fill="white"/>
<path d="M28.1023 33.9156C28.3601 33.4073 32.246 30.9556 32.1072 34.6929C32.0973 34.8225 32.0874 34.9521 32.0675 35.0717C32.6722 33.3973 33.5545 31.7429 34.8928 31.1748C35.9436 30.7164 37.1926 31.0154 37.3512 31.9721C37.5396 33.0784 37.034 33.8259 36.4789 34.6331C36.2211 34.1249 35.319 34.2245 34.9919 34.3142C33.8916 34.6132 32.3649 35.4703 31.6909 37.8224C31.3538 40.4236 31.1159 43.4334 32.5632 43.2341C32.5632 43.2341 30.7491 46.0745 28.707 44.8087C26.655 43.5629 29.7776 35.0816 28.1023 33.9156Z" fill="white"/>
<path d="M47.4917 38.0015C47.4818 38.0513 47.4719 38.1111 47.462 38.1609C46.9366 40.4332 44.1312 41.9083 41.7818 42.0179C39.4919 42.0976 37.5192 40.6425 37.7075 37.9516C38.4907 28.5534 49.5933 26.889 48.8994 32.0516C48.5921 34.4236 45.7272 36.4567 43.239 36.6959C42.3072 36.7856 41.7422 36.367 41.5637 36.0481C41.3555 37.8021 41.7223 39.5363 43.7942 39.3469C44.9639 39.2373 46.7582 38.45 47.2637 36.8454C47.462 36.9949 47.5016 37.3636 47.5116 37.6327C47.5116 37.6726 47.5116 37.7124 47.5116 37.7523C47.5215 37.7922 47.5016 37.9516 47.4917 38.0015ZM41.6331 35.7092C45.2415 35.3803 46.8474 30.4769 45.3505 30.4171C44.3889 30.3872 42.6839 31.8224 41.8314 34.8521C41.7322 35.1411 41.6628 35.4302 41.6331 35.7092Z" fill="white"/>
<path d="M56.4036 36.7061C55.0059 39.0581 53.4396 39.8056 52.2996 39.9551C50.5846 40.1843 49.6826 38.7293 49.6429 36.7061C49.5834 33.3474 52.0518 28.5537 55.3528 27.9955C56.582 27.7863 57.9897 28.1949 58.3664 29.8991C58.3961 29.8692 58.3961 29.8692 58.3961 29.8393C58.5151 29.0121 58.4754 28.3444 58.1384 28.0055C58.5052 27.577 62.5993 26.4308 61.8954 29.8792C61.5287 31.5834 58.8819 37.8722 61.0429 37.8622C61.0429 37.8622 58.8224 40.3039 56.8596 38.8987C56.3342 38.52 56.2648 37.7027 56.4036 36.7061ZM57.1173 33.9056C57.3255 33.2279 57.5337 32.5601 57.7419 31.8824C57.9798 30.1782 57.2363 29.2812 56.6613 29.341C54.8274 29.5104 53.162 33.5966 53.1918 36.0483C53.2017 37.035 53.4495 37.7027 54.0245 37.633C54.6589 37.5532 55.9873 36.5865 57.1173 33.9056Z" fill="white"/>
<path d="M80.3834 31.2344C80.3834 31.3839 80.3834 31.5433 80.3636 31.7028C80.0761 35.1611 76.4281 40.2041 77.7465 43.0644C78.1926 44.0112 75.5557 44.0112 74.267 42.4564C72.4628 40.2439 75.5557 35.1511 76.2001 31.9121C76.4479 29.8491 74.3463 29.3209 72.1258 34.9817C71.3328 37.1743 70.6289 39.337 71.2634 40.7522C71.6401 41.5694 69.3898 41.8186 68.2894 40.523C66.743 38.6693 69.4096 33.7459 69.9747 30.7361C70.2027 28.7727 68.2498 28.5036 66.2573 34.5233C66.2573 34.5133 66.2573 34.5033 66.2573 34.4934C65.6526 36.3371 65.1866 38.1311 65.6922 39.2373C66.0094 39.9549 64.0764 40.3835 63.1346 39.2971C61.38 37.1942 65.9599 29.4704 64.3143 27.7362C64.2548 27.6465 64.3143 27.3874 64.5324 27.2977C65.2759 26.9389 67.4468 26.6001 67.6451 28.6332C67.6748 29.0418 67.655 29.5003 67.5757 29.9886C68.9239 28.0252 70.3414 27.3176 71.4418 27.4572C71.5707 27.4771 71.6995 27.497 71.8383 27.5269C72.0068 27.5668 72.1952 27.6266 72.2745 27.6665C72.562 27.796 72.8098 27.9854 72.8891 28.0551C73.2162 28.3342 73.4343 28.7627 73.5136 29.3807C73.5533 29.7893 73.5037 30.2577 73.4145 30.756C75.2484 28.4737 77.3797 27.9754 78.7874 28.5036C79.1542 28.6432 79.5705 28.9421 79.8481 29.2411C79.9571 29.3607 80.0364 29.4803 80.0959 29.58C80.4528 30.178 80.3834 31.2344 80.3834 31.2344Z" fill="white"/>
<path d="M36.2905 65.4688C19.4383 72.9734 34.2881 50.9279 29.6785 48.0776C29.5596 48.0078 29.5695 47.7287 29.9263 47.5194C30.987 46.9414 33.951 45.8949 34.863 47.4596C42.8827 42.0579 46.2333 48.6456 39.2744 53.2301C45.2222 53.4693 46.9867 60.4856 36.7564 65.2694L36.2905 65.4688ZM34.1989 64.4522C40.8406 62.3393 42.1392 52.4129 33.614 56.1104C32.5236 60.7049 31.6512 65.2495 34.1989 64.4522ZM34.0304 54.4261C40.9596 51.8249 39.2744 45.8949 35.101 48.9247C35.0217 50.2502 34.5557 52.2833 34.0304 54.4261Z" fill="white"/>
<path d="M57.7222 43.0644C58.0791 42.6258 62.3219 41.2306 61.618 44.7985C61.2513 46.5725 57.2365 57.5853 59.4372 57.665C59.4372 57.665 57.1373 60.326 55.1944 58.6716C55.0655 58.562 54.9763 58.4125 54.9069 58.2331C53.9156 55.4625 59.1596 44.5194 57.7222 43.0644Z" fill="white"/>
<path d="M63.918 43.1342C64.2749 42.6957 68.5177 41.3004 67.8138 44.8683C67.447 46.6423 63.4323 57.6551 65.633 57.7348C65.633 57.7348 63.3331 60.3958 61.3902 58.7414C61.2613 58.6318 61.1721 58.4823 61.1027 58.3029C60.1015 55.5323 65.3554 44.5992 63.918 43.1342Z" fill="white"/>
<path d="M54.064 52.054C54.0541 52.1039 54.0442 52.1637 54.0343 52.2135C53.4891 54.4858 50.6837 55.9508 48.3343 56.0605C46.0444 56.1402 44.0618 54.6851 44.2402 52.0042C45.0134 42.5163 56.2449 40.8519 55.5113 46.0842C55.1842 48.4761 52.2995 50.5192 49.8014 50.7484C48.8696 50.8282 48.2946 50.4196 48.1162 50.1006C47.908 51.8647 48.2748 53.5888 50.3466 53.3995C51.5164 53.2899 53.3206 52.5125 53.836 50.9079C54.0343 51.0674 54.074 51.4261 54.0839 51.6952C54.0839 51.7351 54.0839 51.775 54.0839 51.8148C54.0938 51.8447 54.0739 52.0042 54.064 52.054ZM48.1856 49.7518C51.8138 49.4229 53.4494 44.4896 51.9426 44.4198C50.9712 44.3899 49.2463 45.8351 48.3838 48.8847C48.2847 49.1837 48.2252 49.4628 48.1856 49.7518Z" fill="white"/>
</svg>
