<svg width="90" height="112" viewBox="0 0 90 112" fill="none" xmlns="http://www.w3.org/2000/svg">
<path d="M30.3319 102.868V111.767H28.3816V102.868H30.3319Z" fill="black"/>
<path d="M33.5985 102.868L37.3105 108.842H37.3365V102.868H39.1698V111.767H37.2195L33.5172 105.809H33.4912V111.767H31.658V102.868H33.5985Z" fill="black"/>
<path d="M44.3283 102.867C44.8744 102.862 45.4171 102.955 45.9308 103.14C46.4194 103.316 46.8634 103.596 47.231 103.963C47.6071 104.355 47.8962 104.823 48.0793 105.334C48.2974 105.961 48.4009 106.622 48.3849 107.285C48.3901 107.892 48.3058 108.496 48.1346 109.079C47.9842 109.6 47.7274 110.083 47.3805 110.499C47.0375 110.904 46.6075 111.225 46.1225 111.439C45.5617 111.681 44.9551 111.798 44.3445 111.783H40.4895V102.867H44.3283ZM44.1918 110.122C44.4716 110.123 44.7495 110.077 45.0141 109.986C45.2833 109.891 45.5269 109.735 45.726 109.531C45.9483 109.293 46.1178 109.01 46.2233 108.702C46.3591 108.3 46.4229 107.878 46.4118 107.454C46.4156 107.045 46.3709 106.637 46.2786 106.238C46.2054 105.902 46.0589 105.585 45.8495 105.312C45.6433 105.047 45.3708 104.842 45.0596 104.717C44.6717 104.57 44.2587 104.5 43.844 104.512H42.4463V110.122H44.1918Z" fill="black"/>
<path d="M51.2843 102.868V111.767H49.334V102.868H51.2843Z" fill="black"/>
<path d="M57.0441 102.868L60.3726 111.767H58.341L57.6682 109.785H54.3397L53.6409 111.767H51.6678L55.0353 102.868H57.0441ZM57.1579 108.328L56.0332 105.062H56.0105L54.85 108.328H57.1579Z" fill="black"/>
<path d="M83.8339 50.1246C86.8559 28.4854 71.7636 8.49368 50.1245 5.47175C28.4854 2.44982 8.49361 17.542 5.47168 39.1812C2.44976 60.8203 17.542 80.8121 39.1811 83.834C60.8203 86.8559 80.812 71.7637 83.8339 50.1246Z" fill="white"/>
<path d="M44.6176 6.12744C37.0203 6.12744 29.5936 8.38043 23.2768 12.6015C16.9599 16.8225 12.0368 22.822 9.12983 29.8412C6.22291 36.8604 5.46282 44.584 6.94569 52.0353C8.42857 59.4865 12.0878 66.3306 17.4606 71.702C22.8334 77.0734 29.6784 80.7309 37.13 82.2119C44.5816 83.6929 52.305 82.9309 59.3235 80.0221C66.3419 77.1134 72.3402 72.1887 76.5596 65.8708C80.7791 59.553 83.0302 52.1257 83.0283 44.5284C83.0248 34.3432 78.9766 24.5763 71.7736 17.3752C64.5707 10.1741 54.8028 6.1283 44.6176 6.12744Z" fill="black"/>
<path d="M71.2486 67.2358C76.6 60.863 79.5276 52.8043 79.5145 44.4826C79.5188 40.2911 78.7667 36.1333 77.2945 32.2089C72.5716 19.207 59.6185 9.52393 44.9882 9.52393C44.7314 9.52393 44.039 9.54018 44.039 9.54018C41.4355 9.63401 38.8544 10.0589 36.3582 10.8046C35.3148 11.1297 31.6028 12.3973 28.8821 15.1732C25.9093 18.2353 24.2496 22.3373 24.2567 26.6051C24.2567 33.8471 29.2462 39.8215 35.9584 42.5551C38.848 43.696 42.0042 44.4079 44.3218 44.9767C48.3491 45.9518 56.8296 47.3723 63.8896 52.0334L64.1594 52.209C68.5735 55.2221 71.2356 59.6493 71.2356 66.836M49.7826 41.8302C47.967 41.827 46.1931 41.2857 44.6851 40.2746C43.1771 39.2635 42.0027 37.8281 41.3103 36.1497C40.6179 34.4713 40.4386 32.6254 40.795 30.8451C41.1514 29.0649 42.0275 27.4302 43.3127 26.1478C44.5979 24.8653 46.2344 23.9926 48.0154 23.64C49.7964 23.2874 51.642 23.4706 53.3188 24.1666C54.9957 24.8626 56.4287 26.0401 57.4366 27.5502C58.4444 29.0603 58.982 30.8354 58.9814 32.6509C58.9805 35.0857 58.0127 37.4205 56.2907 39.1419C54.5688 40.8632 52.2336 41.8302 49.7988 41.8302H49.7826Z" fill="white"/>
<path d="M9.61658 44.6193C9.61864 35.6677 13.0555 27.0582 19.2184 20.5659C18.0366 23.6227 17.4166 26.8678 17.3884 30.145C17.3884 34.8159 18.7699 40.3125 23.5448 45.3442L24.4192 46.2673C31.2451 53.4443 37.3527 59.8835 37.3527 68.4614C37.3527 71.3868 36.6311 74.5788 34.9799 78.1218C27.6876 76.0474 21.269 71.655 16.6947 65.6087C12.1204 59.5625 9.63922 52.1912 9.62633 44.6096" fill="white"/>
<path d="M79.404 17.728C78.554 17.7286 77.7228 17.4772 77.0158 17.0054C76.3087 16.5336 75.7574 15.8627 75.4317 15.0776C75.1059 14.2924 75.0204 13.4283 75.1858 12.5946C75.3512 11.7608 75.7602 10.9948 76.3611 10.3935C76.9619 9.79225 77.7276 9.38267 78.5612 9.2166C79.3949 9.05053 80.259 9.13544 81.0444 9.46058C81.8298 9.78572 82.5011 10.3365 82.9734 11.0432C83.4457 11.7499 83.6979 12.5809 83.6979 13.4309C83.6961 14.5695 83.2433 15.661 82.4385 16.4664C81.6337 17.2718 80.5426 17.7254 79.404 17.728V17.728ZM79.404 9.66036C78.6582 9.66036 77.9293 9.8815 77.3092 10.2958C76.6891 10.7101 76.2059 11.299 75.9205 11.988C75.6351 12.677 75.5604 13.4351 75.7059 14.1665C75.8514 14.8979 76.2105 15.5697 76.7378 16.0971C77.2651 16.6244 77.937 16.9835 78.6684 17.129C79.3998 17.2745 80.1579 17.1998 80.8469 16.9144C81.5359 16.629 82.1248 16.1458 82.5391 15.5257C82.9534 14.9056 83.1745 14.1766 83.1745 13.4309C83.1737 12.4312 82.7761 11.4726 82.0692 10.7657C81.3623 10.0588 80.4037 9.66123 79.404 9.66036V9.66036Z" fill="black"/>
<path d="M77.4797 10.8306H79.9891C81.312 10.8306 81.5526 11.8057 81.5526 12.2348C81.5678 12.4885 81.5012 12.7404 81.3625 12.9534C81.2238 13.1664 81.0204 13.3293 80.7822 13.4179C81.1918 13.6 81.4128 13.743 81.4128 14.6759C81.4128 15.404 81.4128 15.5827 81.6338 15.6672V15.7973H80.4864C80.399 15.4711 80.3617 15.1335 80.3759 14.7961C80.3759 14.1168 80.3369 13.8535 79.5665 13.8535H78.4939V15.8038H77.4797V10.8306ZM79.7128 13.0181C80.2524 13.0181 80.5157 12.8296 80.5157 12.3388C80.5157 12.0755 80.3987 11.6887 79.7876 11.6887H78.4874V13.0181H79.7128Z" fill="black"/>
<path d="M88.7231 91.0747V89.2122H79.9143V101.71H88.6905V99.8315H81.9816V96.1357H88.1315V94.3512H81.9816V91.0747H88.7231ZM11.9245 89.2122L7.69886 101.71H9.95793L10.712 99.2139H15.708L16.4524 101.71H18.7049L14.4403 89.2122H11.9245ZM15.1749 97.4066H11.2744L13.2246 90.9057L15.1067 97.2213L15.1749 97.4066ZM20.2229 101.713H22.3032V89.2122H20.2229V101.713ZM59.794 89.2122L55.5684 101.713H57.8437L58.5816 99.2139H63.5645L64.3056 101.707H66.5809L62.2968 89.2122H59.794ZM59.1439 97.4066L61.0942 90.9057L63.0444 97.4066H59.1439ZM2.33886 91.0747H8.43672V89.2122H0.24231V101.713H2.33886V96.3015H7.67611V94.5397H2.33886V91.0747ZM52.0091 96.5485L52.0871 96.5257C52.8106 96.3146 53.4423 95.8666 53.8808 95.2537C54.3193 94.6407 54.5393 93.8982 54.5055 93.1453C54.5277 92.5677 54.416 91.9929 54.1792 91.4656C53.9423 90.9384 53.5868 90.4731 53.1403 90.1061C52.0644 89.2317 50.9722 89.2317 49.269 89.2122H45.3294V101.71H47.4422V96.9711H49.7956L52.3179 101.71H54.7363L51.9246 96.5745L52.0091 96.5485ZM51.359 94.9233C50.9292 95.1233 50.4614 95.2286 49.9873 95.2321C49.5355 95.2516 49.2235 95.2646 48.4076 95.2646H47.4325V91H48.6742C50.0816 91 50.7154 91.0162 51.2745 91.2893C51.6117 91.4557 51.8936 91.7161 52.0862 92.039C52.2788 92.362 52.3739 92.7337 52.3602 93.1095V93.1355C52.3858 93.5015 52.3029 93.8669 52.122 94.186C51.941 94.5052 51.67 94.7639 51.3428 94.9298L51.359 94.9233ZM75.8252 90.1744C74.5251 89.2415 73.2249 89.2252 72.1262 89.1992H67.6763V101.697H71.6289C73.1306 101.681 74.4373 101.658 75.6692 100.937C77.4895 99.89 78.2208 97.7187 78.2241 95.5604C78.2241 94.1562 77.8958 91.6403 75.8187 90.1809L75.8252 90.1744ZM75.9683 95.6059C75.9683 98.2745 74.9444 99.1586 73.9822 99.5259C73.4134 99.7372 72.76 99.825 70.9463 99.825H69.7989V91.1105H71.2031C72.8056 91.1267 73.2249 91.1462 73.94 91.468C75.7927 92.3587 75.9683 94.3934 75.9683 95.5929V95.6059ZM31.5702 96.5453L31.6482 96.5225C32.3711 96.3103 33.0021 95.8621 33.4405 95.2494C33.8788 94.6366 34.0993 93.8947 34.0666 93.142C34.0891 92.5646 33.9782 91.9898 33.7426 91.4621C33.5069 90.9345 33.1529 90.4682 32.7079 90.0996C31.6255 89.2252 30.5333 89.2252 28.8268 89.2057H24.8905V101.704H26.9838V96.9743H29.3404L31.8693 101.71H34.2909L31.4792 96.5745L31.5702 96.5453ZM30.9201 94.92C30.4891 95.1198 30.0203 95.2251 29.5452 95.2288C29.0934 95.2451 28.7813 95.2646 27.9622 95.2646H26.9871V91H28.2288C29.6362 91 30.2733 91.0162 30.8291 91.2893C31.1674 91.4555 31.4503 91.7162 31.6436 92.0398C31.8368 92.3634 31.9322 92.7361 31.918 93.1128H31.9018L31.9213 93.129C31.9471 93.4951 31.8651 93.8607 31.6854 94.1807C31.5058 94.5008 31.2364 94.7612 30.9104 94.9298L30.9201 94.92ZM34.7654 91.1105H38.2174V101.71H40.3367V91.1105H43.8667V89.2122H34.7654V91.1105Z" fill="black"/>
</svg>
