<svg width="174" height="50" viewBox="0 0 174 50" fill="none" xmlns="http://www.w3.org/2000/svg">
<path d="M18.9127 48C17.583 48 16.3022 47.7079 15.0945 47.1297C11.5386 45.4194 9.6417 41.5729 10.215 37.842C6.33587 37.5864 3.09714 34.8597 2.21884 31.0254C1.34053 27.185 3.17643 23.3019 6.46396 21.4274C4.3231 18.3112 4.3536 14.0204 6.81772 10.9407C8.50113 8.83488 11.008 7.6298 13.7099 7.6298C14.8505 7.6298 15.9545 7.84282 16.9853 8.25668C18.0893 4.64753 21.4683 2 25.4145 2C29.3608 2 32.7398 4.64753 33.8438 8.25668C34.8746 7.84282 35.9786 7.6298 37.1191 7.6298C39.815 7.6298 42.3279 8.83488 44.0114 10.9407C46.4755 14.0204 46.506 18.3173 44.3651 21.4274C47.6526 23.3019 49.4885 27.185 48.6102 31.0254C47.7319 34.8597 44.4932 37.5864 40.614 37.842C41.1935 41.5729 39.2966 45.4194 35.7407 47.1297C34.5391 47.7079 33.2522 48 31.9225 48C29.3974 48 27.0614 46.9471 25.4145 45.1455C23.7738 46.941 21.4378 48 18.9127 48Z" fill="white" stroke="white" stroke-width="4" stroke-miterlimit="10"/>
<path d="M18.9127 48C17.583 48 16.3022 47.7079 15.0945 47.1297C11.5386 45.4194 9.6417 41.5729 10.215 37.842C6.33587 37.5864 3.09714 34.8597 2.21884 31.0254C1.34053 27.185 3.17643 23.3019 6.46396 21.4274C4.3231 18.3112 4.3536 14.0204 6.81772 10.9407C8.50113 8.83488 11.008 7.6298 13.7099 7.6298C14.8505 7.6298 15.9545 7.84282 16.9853 8.25668C18.0893 4.64753 21.4683 2 25.4145 2C29.3608 2 32.7398 4.64753 33.8438 8.25668C34.8746 7.84282 35.9786 7.6298 37.1191 7.6298C39.815 7.6298 42.3279 8.83488 44.0114 10.9407C46.4755 14.0204 46.506 18.3173 44.3651 21.4274C47.6526 23.3019 49.4885 27.185 48.6102 31.0254C47.7319 34.8597 44.4932 37.5864 40.614 37.842C41.1935 41.5729 39.2966 45.4194 35.7407 47.1297C34.5391 47.7079 33.2522 48 31.9225 48C29.3974 48 27.0614 46.9471 25.4145 45.1455C23.7738 46.941 21.4378 48 18.9127 48Z" fill="black"/>
<path d="M25.4144 7.6543C24.5544 7.6543 23.8103 8.34205 23.8103 9.25498V14.5805C23.8103 15.4386 24.4995 16.1812 25.4144 16.1812C26.2744 16.1812 27.0185 15.4934 27.0185 14.5805V9.25498C27.0246 8.39682 26.2744 7.6543 25.4144 7.6543Z" fill="white"/>
<path d="M11.2091 14.4833C10.6724 15.1528 10.7456 16.1631 11.4653 16.7352L15.6372 20.0523C16.3081 20.5878 17.3206 20.5148 17.894 19.7966C18.4307 19.1271 18.3575 18.1168 17.6378 17.5447L13.4658 14.2277C12.7888 13.6921 11.7458 13.8138 11.2091 14.4833Z" fill="white"/>
<path d="M7.69593 29.8267C7.88501 30.6666 8.72672 31.2387 9.61722 31.0318L14.8199 29.8449C15.6616 29.6563 16.235 28.8164 16.0276 27.9278C15.8385 27.0879 14.9968 26.5158 14.1063 26.7227L8.9036 27.9095C8.06799 28.0982 7.50686 28.9929 7.69593 29.8267Z" fill="white"/>
<path d="M17.5342 42.1328C18.3088 42.5041 19.2786 42.2119 19.6812 41.3842L21.9928 36.5882C22.3649 35.8153 22.0721 34.8476 21.2426 34.4459C20.468 34.0746 19.4982 34.3667 19.0956 35.1945L16.784 39.9904C16.4058 40.7634 16.7596 41.7616 17.5342 42.1328Z" fill="white"/>
<path d="M33.3069 42.1331C34.0815 41.7618 34.4536 40.8184 34.0571 39.9907L31.7394 35.1947C31.3673 34.4218 30.4219 34.0505 29.5924 34.4461C28.8178 34.8174 28.4458 35.7608 28.8422 36.5885L31.16 41.3845C31.532 42.1574 32.5323 42.5043 33.3069 42.1331Z" fill="white"/>
<path d="M43.1392 29.8267C43.3283 28.9868 42.8281 28.1104 41.9315 27.9095L36.7288 26.7227C35.8871 26.534 35.0088 27.0331 34.8075 27.9278C34.6184 28.7677 35.1186 29.6441 36.0152 29.845L41.2179 31.0318C42.0535 31.2205 42.944 30.6605 43.1392 29.8267Z" fill="white"/>
<path d="M39.6259 14.483C39.0892 13.8135 38.0889 13.6614 37.3691 14.2274L33.1972 17.5444C32.5263 18.08 32.3738 19.0782 32.941 19.7963C33.4778 20.4658 34.4781 20.618 35.1978 20.052L39.3697 16.7349C40.0467 16.1994 40.1626 15.1525 39.6259 14.483Z" fill="white"/>
<path d="M68.8296 17.0635H66.0605C65.8409 17.0635 65.7311 17.1791 65.7311 17.4104V27.118C65.7311 28.8282 65.0602 29.6621 63.6878 29.6621C62.7424 29.6621 61.8946 29.376 61.0285 28.7552C60.9431 28.6943 60.8639 28.6639 60.7907 28.6639C60.7724 28.6639 60.7541 28.6639 60.7419 28.67C60.6687 28.6882 60.6016 28.7369 60.5467 28.8282L59.2292 30.9097C59.1194 31.1045 59.1499 31.2445 59.3207 31.3479C60.7297 32.4191 62.102 32.8999 63.7732 32.8999C67.1522 32.8999 69.1711 30.7332 69.1711 27.0997V17.4165C69.1772 17.1791 69.0674 17.0635 68.8296 17.0635Z" fill="black"/>
<path d="M81.3211 21.3362H78.7289C78.5093 21.3362 78.3812 21.4518 78.3812 21.6648V29.2301L78.3568 29.2422C78.003 29.4309 77.4236 29.5526 76.9052 29.5526C75.6792 29.5526 75.0388 28.8953 75.0388 27.6415V21.6587C75.0388 21.4396 74.929 21.3301 74.7094 21.3301H72.1172C71.8976 21.3301 71.7695 21.4457 71.7695 21.6587V27.7085C71.7695 30.4838 73.6298 32.3523 76.3989 32.3523C77.0149 32.3523 77.6615 32.2549 78.3812 32.048L78.4422 32.0297V32.0906C78.4544 32.8575 78.2897 33.4052 77.942 33.7521C77.6005 34.0991 77.0881 34.2573 76.3318 34.2573C75.1669 34.2573 74.2276 33.8495 73.6481 33.5087C73.581 33.4722 73.5139 33.4539 73.459 33.4539C73.3615 33.4539 73.2822 33.5087 73.2029 33.6243L72.0379 35.4015C71.9769 35.4928 71.9525 35.5841 71.9708 35.6632C71.9891 35.7424 72.044 35.8032 72.1355 35.858C73.3005 36.6979 74.5996 37.057 76.4782 37.057C80.0463 37.057 81.6321 35.3711 81.6321 31.5794V21.6648C81.6504 21.4457 81.5406 21.3362 81.3211 21.3362Z" fill="black"/>
<path d="M89.0609 21.0317C85.8648 21.0317 83.8826 22.8211 83.8826 25.6938V28.3231C83.8826 31.1593 85.8648 32.9243 89.0609 32.9243C92.2447 32.9243 94.2148 31.1654 94.2148 28.3231V25.6938C94.2148 22.8211 92.2386 21.0317 89.0609 21.0317ZM90.909 28.3231C90.909 29.443 90.2502 30.0577 89.0609 30.0577C87.8715 30.0577 87.2128 29.443 87.2128 28.3231V25.6938C87.2128 24.5618 87.8837 23.9166 89.0609 23.9166C90.232 23.9166 90.909 24.5618 90.909 25.6938V28.3231Z" fill="black"/>
<path d="M101.845 29.9724C101.589 29.9967 101.333 30.015 101.138 30.015C100.143 30.015 99.6188 29.4368 99.6188 28.3474V24.3365H101.619C101.839 24.3365 101.967 24.2209 101.967 24.0079V21.902C101.967 21.6951 101.839 21.5734 101.619 21.5734H99.6005L99.5945 21.5368L99.3322 18.9076C99.3139 18.6945 99.2041 18.5972 98.9845 18.5972H96.7034C96.4716 18.5972 96.3557 18.7067 96.3557 18.9258V28.7612C96.3557 31.3905 97.8927 32.8999 100.57 32.8999C101.058 32.8999 101.546 32.8634 101.943 32.7903C102.162 32.7477 102.211 32.553 102.211 32.4008V30.2524C102.211 30.1367 102.187 30.0576 102.132 30.015C102.071 29.9663 101.979 29.9481 101.845 29.9724Z" fill="black"/>
<path d="M109.664 21.0315C108.817 21.0315 108.097 21.1471 107.463 21.3784L107.402 21.4028V17.4163C107.402 17.185 107.292 17.0693 107.072 17.0693H104.48C104.242 17.0693 104.132 17.1789 104.132 17.4163V32.2911C104.132 32.5285 104.242 32.638 104.48 32.638H107.072C107.292 32.638 107.402 32.5224 107.402 32.2911V24.1964L107.432 24.1842C107.859 24.0077 108.463 23.8981 108.963 23.8981C110.305 23.8981 110.878 24.5433 110.878 26.0466V32.2911C110.878 32.5285 110.988 32.638 111.226 32.638H113.818C114.056 32.638 114.166 32.5285 114.166 32.2911V26.0466C114.166 22.9061 112.482 21.0315 109.664 21.0315Z" fill="black"/>
<path d="M125.931 21.3362H123.339C123.12 21.3362 122.992 21.4518 122.992 21.6648V29.2301L122.967 29.2422C122.613 29.4309 122.034 29.5526 121.516 29.5526C120.29 29.5526 119.649 28.8953 119.649 27.6415V21.6587C119.649 21.4396 119.539 21.3301 119.32 21.3301H116.728C116.508 21.3301 116.38 21.4457 116.38 21.6587V27.7085C116.38 30.4838 118.24 32.3523 121.009 32.3523C121.625 32.3523 122.272 32.2549 122.992 32.048L123.053 32.0297V32.0906C123.065 32.8575 122.9 33.4052 122.552 33.7521C122.211 34.0991 121.698 34.2573 120.942 34.2573C119.777 34.2573 118.838 33.8495 118.258 33.5087C118.191 33.4722 118.124 33.4539 118.069 33.4539C117.972 33.4539 117.893 33.5087 117.813 33.6243L116.648 35.4015C116.587 35.4928 116.563 35.5841 116.581 35.6632C116.599 35.7424 116.654 35.8032 116.746 35.858C117.911 36.6979 119.21 37.057 121.089 37.057C124.657 37.057 126.249 35.3711 126.249 31.5794V21.6648C126.261 21.4457 126.151 21.3362 125.931 21.3362Z" fill="black"/>
<path d="M138.667 29.9296C138.447 29.954 138.197 29.954 137.984 29.954C137.081 29.954 136.642 29.4184 136.642 28.3107V17.4163C136.642 17.185 136.532 17.0693 136.312 17.0693H133.72C133.482 17.0693 133.373 17.1789 133.373 17.4163V28.7185C133.373 31.3903 134.836 32.9241 137.386 32.9241C138.014 32.9241 138.508 32.851 138.825 32.7902C138.947 32.7719 139.027 32.6319 139.027 32.4432V30.2522C139.027 30.1365 138.996 30.0513 138.935 29.9966C138.88 29.9418 138.789 29.9174 138.667 29.9296Z" fill="black"/>
<path d="M145.589 21.0317C143.924 21.0317 142.29 21.47 141.094 22.2307C140.972 22.322 140.96 22.4438 141.07 22.6507L141.973 24.3609C142.015 24.4461 142.07 24.4948 142.143 24.5192C142.229 24.5435 142.332 24.5313 142.43 24.4705C143.083 24.1114 144.248 23.8497 145.199 23.8497C146.541 23.8497 147.09 24.3853 147.09 25.6938V25.9677L147.035 25.9616C146.468 25.8947 145.846 25.8277 145.175 25.8277C142.119 25.8277 140.436 27.0267 140.436 29.1995C140.436 30.8976 141.32 32.9243 145.547 32.9243C147.047 32.9243 148.773 32.6809 150.054 32.2913C150.249 32.2305 150.353 32.1027 150.353 31.8957V25.8947C150.347 22.7115 148.7 21.0317 145.589 21.0317ZM147.084 30.1124L147.047 30.1185C146.663 30.2037 146.065 30.295 145.547 30.295C144.4 30.295 143.741 29.8629 143.741 29.1082C143.741 28.3535 144.339 27.964 145.522 27.964C146.053 27.964 146.639 28.0127 147.047 28.0979L147.084 28.104V30.1124V30.1124Z" fill="black"/>
<path d="M158.117 21.0315C157.495 21.0315 156.733 21.1715 156.092 21.4028L156.031 21.4271V17.4163C156.031 17.185 155.922 17.0693 155.702 17.0693H153.11C152.872 17.0693 152.762 17.1789 152.762 17.4163V31.7251C152.762 31.9381 152.848 32.0659 153.043 32.1389C154.366 32.6137 156.178 32.9241 157.66 32.9241C160.795 32.9241 162.82 30.9886 162.82 27.9942V25.8275C162.814 22.9608 160.929 21.0315 158.117 21.0315ZM159.502 28.0611C159.502 29.3697 158.855 30.0331 157.587 30.0331C157.038 30.0331 156.477 29.9418 156.056 29.7896L156.025 29.7775V24.239L156.05 24.2268C156.379 24.0564 156.916 23.8494 157.611 23.8494C158.849 23.8494 159.502 24.5189 159.502 25.7788V28.0611Z" fill="black"/>
<path d="M169.938 25.6084C168.181 25.3345 167.986 25.0667 167.986 24.5554C167.986 23.9772 168.462 23.6973 169.438 23.6973C170.298 23.6973 171.237 23.9285 172.006 24.3363C172.207 24.4337 172.353 24.3911 172.469 24.2024L173.482 22.4922C173.543 22.3887 173.561 22.2913 173.537 22.2122C173.512 22.1392 173.457 22.0783 173.366 22.0296C172.061 21.348 170.828 21.0254 169.499 21.0254C166.498 21.0254 164.778 22.3279 164.778 24.5919C164.778 26.5456 166.23 27.7751 169.084 28.2498C169.901 28.3959 170.706 28.5845 170.706 29.2175C170.706 29.7896 170.09 30.1426 169.102 30.1426C167.986 30.1426 166.894 29.8018 165.937 29.1506C165.858 29.0958 165.79 29.0714 165.736 29.0714C165.723 29.0714 165.711 29.0714 165.699 29.0775C165.626 29.0897 165.553 29.1566 165.479 29.2723L164.449 31.0251C164.327 31.2321 164.351 31.3781 164.546 31.512C165.858 32.425 167.468 32.9301 169.084 32.9301C172.298 32.9301 174 31.6216 174 29.1445C174.006 27.2334 172.677 26.0831 169.938 25.6084Z" fill="black"/>
</svg>
