<svg width="184" height="40" viewBox="0 0 184 40" fill="none" xmlns="http://www.w3.org/2000/svg">
<path d="M51.6293 16.4219C51.562 16.5565 51.4611 16.6574 51.3602 16.7583C51.2593 16.8256 51.1247 16.8592 50.9902 16.8592C50.822 16.8592 50.6874 16.8256 50.5528 16.7246C50.3846 16.6237 50.2164 16.5565 50.0146 16.4219C49.7791 16.321 49.5773 16.2201 49.3418 16.1191C49.0727 16.0182 48.77 15.9846 48.4672 15.9846C47.9963 15.9509 47.5589 16.0855 47.1889 16.3546C46.9198 16.5901 46.7516 16.9601 46.7852 17.3302C46.7852 17.5656 46.8525 17.8011 47.0543 18.0029C47.2562 18.2048 47.458 18.3393 47.7271 18.4403C48.0299 18.5748 48.3326 18.7094 48.669 18.7766C49.0054 18.8776 49.3755 19.0121 49.7455 19.113C50.1155 19.2476 50.4856 19.3822 50.822 19.584C51.1583 19.7522 51.4947 19.9877 51.7639 20.2568C52.033 20.5259 52.2684 20.8623 52.4366 21.2323C52.6048 21.6696 52.7058 22.1406 52.7058 22.6452C52.7058 23.217 52.6048 23.7889 52.403 24.3608C52.2012 24.8654 51.8984 25.3363 51.4947 25.74C51.0574 26.1437 50.5528 26.4801 50.0146 26.6819C49.3755 26.9174 48.7027 27.0183 48.0299 27.0183C47.6262 27.0183 47.1889 26.9846 46.7852 26.8837C46.3816 26.8164 45.9442 26.6819 45.5406 26.5137C45.1369 26.3791 44.7669 26.1773 44.4305 25.9755C44.0941 25.7736 43.7913 25.5382 43.5222 25.269L44.4305 23.8562C44.4978 23.7553 44.5987 23.6544 44.6996 23.5871C44.8342 23.5198 44.9351 23.4862 45.1033 23.4862C45.3051 23.4862 45.4733 23.5534 45.6415 23.6543C45.8097 23.7553 46.0452 23.8898 46.247 24.0244C46.5161 24.1589 46.7516 24.2935 47.0543 24.3944C47.3907 24.529 47.7608 24.5626 48.1308 24.5626C48.6018 24.5962 49.0391 24.4617 49.4091 24.1926C49.7455 23.8898 49.9137 23.4862 49.8801 23.0488C49.8801 22.7797 49.8128 22.5106 49.6109 22.3088C49.4427 22.1069 49.2073 21.9387 48.9382 21.8378C48.6354 21.7033 48.3326 21.6024 47.9962 21.5014C47.6599 21.4005 47.2898 21.2996 46.9198 21.1987C46.5498 21.0641 46.1797 20.9296 45.8433 20.7614C45.5069 20.5932 45.1705 20.3577 44.9014 20.0886C44.5987 19.7858 44.3968 19.4158 44.2286 19.0458C44.0604 18.5412 43.9595 18.0366 43.9595 17.4984C43.9595 16.9938 44.0605 16.5228 44.2623 16.0519C44.4641 15.5809 44.7669 15.1436 45.1369 14.8072C45.5406 14.4372 46.0115 14.1344 46.5498 13.9326C47.1553 13.6971 47.8281 13.5962 48.4672 13.5962C48.8709 13.5962 49.2409 13.6298 49.6446 13.6971C50.0146 13.7644 50.3846 13.8653 50.721 13.9662C51.0574 14.1008 51.3602 14.2353 51.6966 14.4035C51.9993 14.5717 52.2348 14.7736 52.5039 14.9754L51.6293 16.4219Z" fill="black"/>
<path d="M60.3754 26.8841C60.1735 26.8841 59.9717 26.8504 59.8035 26.7831C59.6353 26.6822 59.5344 26.514 59.4671 26.3458L59.2653 25.8412C59.0298 26.0431 58.828 26.2113 58.6261 26.3458C58.4243 26.4804 58.1888 26.6149 57.987 26.7159C57.7515 26.8168 57.516 26.8841 57.2806 26.9513C57.0114 27.0186 56.7087 27.0186 56.4396 27.0186C56.0695 27.0186 55.6659 26.985 55.2958 26.8504C54.9931 26.7495 54.6903 26.5813 54.4212 26.3795C54.1857 26.1776 53.9839 25.9085 53.883 25.6058C53.7484 25.2694 53.6812 24.8993 53.6812 24.5293C53.6812 24.1929 53.7821 23.8565 53.9166 23.5538C54.1185 23.1837 54.4212 22.8473 54.7576 22.6119C55.2622 22.2755 55.8004 22.04 56.3723 21.9054C57.2133 21.7036 58.0879 21.6027 58.9625 21.6363V21.2327C58.9962 20.829 58.8952 20.3917 58.6261 20.0553C58.3907 19.8198 58.0543 19.6852 57.6842 19.6852C57.4151 19.6852 57.146 19.7189 56.9105 19.7862C56.7087 19.8534 56.5405 19.9207 56.3723 20.0216C56.2041 20.1226 56.0695 20.1898 55.9013 20.2571C55.7331 20.3244 55.5313 20.358 55.3631 20.358C55.1949 20.358 55.0267 20.3244 54.8922 20.2235C54.7576 20.1226 54.6567 20.0216 54.5894 19.8871L54.0848 19.0461C54.6231 18.5751 55.2286 18.2051 55.9013 17.9696C56.6078 17.7342 57.3142 17.5996 58.0543 17.5996C58.5589 17.5996 59.0634 17.6669 59.5344 17.8687C59.9717 18.0369 60.3417 18.2724 60.6445 18.6088C60.9472 18.9452 61.1827 19.3152 61.3509 19.7525C61.5191 20.2235 61.5864 20.6944 61.5864 21.199V26.8504H60.3754V26.8841ZM57.2806 25.2357C57.5833 25.2357 57.9197 25.1685 58.1888 25.0675C58.4916 24.933 58.7607 24.7311 58.9962 24.462V23.2174C58.5589 23.2174 58.0879 23.251 57.6506 23.3183C57.3478 23.3519 57.0787 23.4529 56.8096 23.5874C56.6414 23.6547 56.4732 23.7892 56.3723 23.9574C56.305 24.092 56.2377 24.2266 56.2377 24.3948C56.2041 24.6302 56.305 24.8993 56.5069 25.0675C56.7423 25.2021 57.0114 25.2694 57.2806 25.2357Z" fill="black"/>
<path d="M68.3479 26.8834H65.8922L62.3601 17.8008H64.6139C64.7821 17.8008 64.9503 17.8344 65.0849 17.9353C65.2195 18.0026 65.2867 18.1372 65.354 18.2717L66.5987 22.3421C66.6996 22.6785 66.8005 22.9812 66.8678 23.3176C66.9351 23.654 67.036 23.9568 67.1033 24.2595C67.1705 23.9568 67.2378 23.6204 67.3387 23.3176C67.4396 23.0149 67.5406 22.6785 67.6415 22.3421L68.9534 18.2717C68.9871 18.1372 69.088 18.0026 69.2225 17.9353C69.3571 17.8344 69.5253 17.8008 69.6935 17.8008H71.8464L68.3479 26.8834Z" fill="black"/>
<path d="M76.6569 17.6999C77.2288 17.6999 77.767 17.8008 78.3052 17.969C78.7762 18.1372 79.2135 18.4063 79.5835 18.7764C79.9535 19.1464 80.2563 19.5837 80.4245 20.0883C80.6263 20.6602 80.7272 21.232 80.7272 21.8375C80.7272 22.0057 80.7272 22.1739 80.6936 22.3421C80.6936 22.443 80.66 22.544 80.5927 22.6449C80.5591 22.7122 80.4918 22.7794 80.3909 22.8131C80.2899 22.8467 80.189 22.8467 80.0881 22.8467H74.8404C74.874 23.4522 75.1095 24.0577 75.5468 24.495C75.9505 24.8314 76.4551 25.0333 76.9933 24.9996C77.2624 24.9996 77.5315 24.966 77.8006 24.8987C78.0025 24.8314 78.2043 24.7305 78.4061 24.6296C78.5743 24.5287 78.7425 24.4614 78.9107 24.3605C79.0453 24.2932 79.2135 24.2596 79.3817 24.2596C79.5835 24.2596 79.7517 24.3269 79.8863 24.495L80.66 25.4706C80.3909 25.7733 80.0881 26.0425 79.7517 26.2443C79.449 26.4461 79.1126 26.6143 78.7425 26.7152C78.4061 26.8162 78.0697 26.9171 77.7334 26.9507C77.397 26.9844 77.0942 27.018 76.7578 27.018C76.1523 27.018 75.5468 26.9171 74.9749 26.7152C74.4367 26.5134 73.9321 26.2107 73.5284 25.807C73.0911 25.3697 72.7547 24.8651 72.5529 24.2932C72.2838 23.6204 72.1829 22.914 72.1829 22.1739C72.1829 21.6021 72.2838 20.9966 72.4856 20.4583C72.8893 19.3819 73.7303 18.5072 74.7731 18.0699C75.3786 17.8008 76.0177 17.6663 76.6569 17.6999ZM76.6905 19.5501C76.2532 19.5164 75.8159 19.6846 75.4795 19.9874C75.1431 20.3574 74.9413 20.7947 74.9076 21.2657H78.3052C78.3052 21.0638 78.2716 20.8284 78.2379 20.6265C78.1707 20.4247 78.1034 20.2565 77.9688 20.0883C77.8343 19.9201 77.6661 19.7855 77.4642 19.6846C77.2288 19.6173 76.9596 19.5501 76.6905 19.5501Z" fill="black"/>
<path d="M89.1033 27.0518C88.6996 27.0518 88.3296 26.9846 87.9595 26.85C87.3204 26.6145 86.8158 26.1099 86.614 25.4708C86.4794 25.1344 86.4458 24.7644 86.4458 24.3943V19.6848H85.6721C85.403 19.6848 85.1675 19.483 85.1675 19.2139C85.1675 19.1802 85.1675 19.1802 85.1675 19.1466V18.1038L86.614 17.8347L87.1522 15.6145C87.2195 15.3453 87.455 15.1435 87.7577 15.2108H89.1706V17.8683H91.3908V19.7185H89.1706V24.2261C89.1706 24.428 89.2042 24.5962 89.3388 24.7307C89.4397 24.8653 89.6079 24.9326 89.7761 24.9326C89.877 24.9326 89.9443 24.9326 90.0115 24.8989C90.0788 24.8653 90.1461 24.8653 90.1797 24.8316C90.2134 24.798 90.2807 24.798 90.3143 24.7644C90.3479 24.7307 90.4152 24.7307 90.4825 24.7307C90.5498 24.7307 90.6171 24.7307 90.6843 24.798C90.7516 24.8653 90.7853 24.8989 90.8525 24.9662L91.6599 26.2445C91.2898 26.5136 90.9198 26.7154 90.4825 26.85C90.0115 26.9846 89.5742 27.0518 89.1033 27.0518Z" fill="black"/>
<path d="M92.8708 26.8835V13.7979H95.5956V18.6083C95.932 18.3392 96.2684 18.1037 96.6721 17.9355C97.1094 17.7673 97.5804 17.6664 98.0513 17.6664C98.4886 17.6664 98.9596 17.7337 99.3632 17.9355C99.7333 18.1037 100.07 18.3392 100.339 18.6419C100.608 18.9783 100.81 19.3483 100.944 19.7184C101.079 20.1557 101.146 20.6266 101.146 21.0976V26.8499H98.4213V21.1312C98.455 20.7612 98.3204 20.3912 98.1186 20.0884C97.8831 19.8193 97.5467 19.6847 97.2103 19.7184C96.9076 19.7184 96.6385 19.7857 96.3693 19.9202C96.1002 20.0548 95.8311 20.223 95.6293 20.4248V26.8835H92.8708Z" fill="black"/>
<path d="M106.999 17.6999C107.571 17.6999 108.11 17.8008 108.648 17.969C109.119 18.1372 109.556 18.4063 109.926 18.7764C110.296 19.1464 110.599 19.5837 110.767 20.0883C110.969 20.6602 111.07 21.232 111.07 21.8375C111.07 22.0057 111.07 22.1739 111.036 22.3421C111.036 22.443 111.003 22.544 110.935 22.6449C110.902 22.7122 110.834 22.7794 110.733 22.8131C110.633 22.8467 110.532 22.8467 110.431 22.8467H105.217C105.25 23.4522 105.486 24.0577 105.923 24.495C106.327 24.8314 106.831 25.0333 107.37 24.9996C107.639 24.9996 107.908 24.966 108.177 24.8987C108.379 24.8314 108.581 24.7305 108.782 24.6296C108.951 24.5287 109.119 24.4614 109.287 24.3605C109.422 24.2932 109.59 24.2596 109.758 24.2596C109.96 24.2596 110.128 24.3269 110.262 24.495L111.036 25.4706C110.767 25.7733 110.464 26.0425 110.128 26.2443C109.825 26.4461 109.489 26.6143 109.119 26.7152C108.782 26.8162 108.446 26.9171 108.11 26.9507C107.773 26.9844 107.47 27.018 107.134 27.018C106.529 27.018 105.923 26.9171 105.351 26.7152C104.813 26.5134 104.308 26.2107 103.905 25.807C103.467 25.3697 103.131 24.8651 102.929 24.2932C102.66 23.6204 102.559 22.914 102.559 22.1739C102.559 21.6021 102.66 20.9966 102.862 20.4583C103.266 19.3819 104.106 18.5072 105.149 18.0699C105.721 17.8008 106.36 17.6663 106.999 17.6999ZM107.067 19.5501C106.629 19.5164 106.192 19.6846 105.856 19.9874C105.519 20.3574 105.318 20.7947 105.284 21.2657H108.648C108.648 21.0638 108.614 20.8284 108.581 20.6265C108.513 20.4247 108.446 20.2565 108.311 20.0883C108.177 19.9201 108.009 19.7855 107.807 19.6846C107.571 19.6173 107.302 19.5501 107.067 19.5501Z" fill="black"/>
<path d="M125.198 23.4862C125.266 23.4862 125.333 23.4862 125.4 23.5198C125.468 23.5535 125.535 23.5871 125.602 23.6544L126.813 24.9327C126.309 25.6055 125.602 26.1437 124.828 26.4801C123.92 26.8501 122.978 27.0183 122.003 27.0183C121.094 27.0183 120.186 26.8501 119.312 26.5137C118.538 26.1774 117.865 25.7064 117.293 25.1009C116.721 24.4954 116.318 23.7553 116.015 22.9816C115.712 22.107 115.578 21.2324 115.578 20.3241C115.578 19.4158 115.746 18.4739 116.082 17.633C116.419 16.8256 116.89 16.1192 117.495 15.5137C118.101 14.9082 118.841 14.4372 119.648 14.1345C120.523 13.7981 121.465 13.6299 122.44 13.6299C122.911 13.6299 123.382 13.6635 123.819 13.7644C124.223 13.8317 124.66 13.9663 125.03 14.1345C125.4 14.269 125.737 14.4709 126.073 14.6727C126.376 14.8745 126.679 15.11 126.914 15.3791L125.871 16.7583C125.804 16.8593 125.737 16.9265 125.636 16.9938C125.535 17.0611 125.4 17.0947 125.266 17.0947C125.165 17.0947 125.064 17.0611 124.963 17.0275C124.862 16.9602 124.761 16.9265 124.66 16.8593C124.559 16.792 124.425 16.7247 124.29 16.6238C124.156 16.5229 123.987 16.4556 123.819 16.3883C123.617 16.321 123.416 16.2538 123.214 16.2201C122.945 16.1528 122.676 16.1528 122.373 16.1528C121.868 16.1528 121.33 16.2537 120.859 16.4556C120.422 16.6574 120.018 16.9265 119.682 17.2966C119.345 17.6666 119.076 18.1376 118.908 18.6085C118.706 19.1804 118.639 19.7522 118.639 20.3577C118.639 20.9633 118.706 21.5688 118.908 22.1406C119.076 22.6116 119.312 23.0825 119.648 23.4526C119.951 23.789 120.321 24.0917 120.758 24.2599C121.195 24.4617 121.633 24.529 122.104 24.529C122.373 24.529 122.608 24.529 122.844 24.4954C123.046 24.4617 123.281 24.4281 123.483 24.3608C123.685 24.2935 123.853 24.1926 124.055 24.0917C124.257 23.9908 124.425 23.8562 124.593 23.688C124.66 23.6208 124.728 23.5871 124.828 23.5535C125.03 23.5198 125.131 23.4862 125.198 23.4862Z" fill="black"/>
<path d="M128.226 26.8835V13.7979H130.951V18.6083C131.287 18.3392 131.623 18.1037 132.027 17.9355C132.464 17.7673 132.935 17.6664 133.406 17.6664C133.844 17.6664 134.315 17.7337 134.718 17.9355C135.088 18.1037 135.425 18.3392 135.694 18.6419C135.963 18.9783 136.165 19.3483 136.299 19.7184C136.434 20.1557 136.501 20.6266 136.501 21.0976V26.8499H133.776V21.1312C133.81 20.7612 133.675 20.3912 133.474 20.0884C133.238 19.8193 132.902 19.6847 132.565 19.7184C132.263 19.7184 131.993 19.7857 131.724 19.9202C131.455 20.0548 131.186 20.223 130.984 20.4248V26.8835H128.226Z" fill="black"/>
<path d="M141.648 15.3452C141.648 15.547 141.614 15.7489 141.513 15.9507C141.412 16.1526 141.311 16.3207 141.143 16.4553C140.975 16.5899 140.807 16.7244 140.605 16.7917C140.403 16.8926 140.168 16.9263 139.966 16.9263C139.764 16.9263 139.529 16.8926 139.36 16.7917C139.158 16.7244 138.99 16.5899 138.856 16.4553C138.721 16.3207 138.587 16.1526 138.519 15.9507C138.418 15.7489 138.385 15.547 138.385 15.3452C138.385 15.1434 138.418 14.9079 138.519 14.7397C138.587 14.5379 138.721 14.3697 138.856 14.2351C138.99 14.1006 139.192 13.966 139.36 13.8987C139.562 13.8314 139.764 13.7642 139.966 13.7642C140.201 13.7642 140.403 13.7978 140.605 13.8987C141.009 14.0669 141.311 14.3697 141.48 14.7397C141.614 14.9079 141.648 15.1434 141.648 15.3452ZM141.345 17.8345V26.9171H138.62V17.8345H141.345Z" fill="black"/>
<path d="M146.526 13.7979V26.8835H143.801V13.7979H146.526Z" fill="black"/>
<path d="M155.138 26.8835C155.003 26.8835 154.835 26.8499 154.7 26.7826C154.566 26.7154 154.498 26.5808 154.465 26.4462L154.263 25.7398C154.095 25.9416 153.893 26.1098 153.691 26.278C153.489 26.4462 153.287 26.5808 153.052 26.6817C152.816 26.7826 152.581 26.8836 152.312 26.9508C152.043 27.0181 151.74 27.0517 151.437 27.0517C150.966 27.0517 150.529 26.9508 150.125 26.749C149.722 26.5472 149.352 26.2108 149.082 25.8407C148.78 25.4034 148.544 24.8988 148.41 24.3942C148.241 23.7551 148.141 23.0823 148.174 22.4432C148.174 21.804 148.275 21.1649 148.443 20.5594C148.611 20.0211 148.881 19.5165 149.251 19.0456C149.587 18.6419 149.991 18.3055 150.495 18.0364C151 17.8009 151.538 17.6664 152.076 17.6664C152.48 17.6664 152.884 17.7337 153.254 17.8682C153.556 18.0028 153.859 18.171 154.128 18.4064V13.7979H156.853V26.8835H155.138ZM152.413 24.9661C152.581 24.9661 152.783 24.9325 152.951 24.8988C153.119 24.8652 153.254 24.7979 153.388 24.7306C153.523 24.6634 153.657 24.5624 153.758 24.4615C153.893 24.3606 153.994 24.226 154.128 24.0915V20.2566C153.96 20.0548 153.725 19.8866 153.456 19.7857C153.22 19.6847 152.951 19.6511 152.715 19.6511C152.48 19.6511 152.245 19.6847 152.009 19.7857C151.774 19.8866 151.605 20.0548 151.471 20.2566C151.303 20.5257 151.168 20.7948 151.101 21.0976C151 21.5013 150.966 21.9386 150.966 22.3759C150.966 22.7796 151 23.1832 151.067 23.5869C151.134 23.856 151.202 24.1251 151.37 24.3942C151.471 24.5624 151.639 24.7306 151.807 24.8316C152.009 24.8988 152.211 24.9661 152.413 24.9661Z" fill="black"/>
<path d="M159.006 26.8839V17.8013H160.621C160.721 17.8013 160.856 17.8013 160.957 17.8349C161.024 17.8686 161.125 17.9022 161.192 17.9358C161.26 18.0031 161.293 18.0704 161.327 18.1377C161.361 18.2386 161.394 18.3395 161.394 18.4404L161.529 19.2814C161.832 18.8105 162.202 18.4068 162.639 18.0704C163.043 17.7676 163.514 17.6331 163.984 17.6331C164.355 17.5994 164.691 17.734 164.994 17.9358L164.657 19.9206C164.657 20.0215 164.59 20.1224 164.523 20.1897C164.455 20.2569 164.355 20.2569 164.254 20.2569C164.153 20.2569 164.018 20.2569 163.917 20.2233C163.749 20.1897 163.581 20.1897 163.413 20.1897C162.706 20.1897 162.134 20.5597 161.731 21.3334V26.8839H159.006Z" fill="black"/>
<path d="M169.939 17.6999C170.511 17.6999 171.049 17.8008 171.587 17.969C172.058 18.1372 172.495 18.4063 172.865 18.7764C173.235 19.1464 173.538 19.5837 173.706 20.0883C173.908 20.6602 174.009 21.232 174.009 21.8375C174.009 22.0057 174.009 22.1739 173.975 22.3421C173.975 22.443 173.942 22.544 173.874 22.6449C173.841 22.7122 173.774 22.7794 173.673 22.8131C173.572 22.8467 173.471 22.8467 173.37 22.8467H168.156C168.189 23.4522 168.425 24.0577 168.862 24.495C169.266 24.8314 169.77 25.0333 170.309 24.9996C170.578 24.9996 170.847 24.966 171.116 24.8987C171.318 24.8314 171.52 24.7305 171.722 24.6296C171.89 24.5287 172.058 24.4614 172.226 24.3605C172.361 24.2932 172.529 24.2596 172.697 24.2596C172.899 24.2596 173.067 24.3269 173.202 24.495L173.975 25.4706C173.706 25.7733 173.404 26.0425 173.067 26.2443C172.764 26.4461 172.428 26.6143 172.058 26.7152C171.722 26.8162 171.385 26.9171 171.049 26.9507C170.712 26.9844 170.41 27.018 170.073 27.018C169.468 27.018 168.862 26.9171 168.29 26.7152C167.752 26.5134 167.248 26.2107 166.844 25.807C166.407 25.3697 166.07 24.8651 165.868 24.2932C165.599 23.6204 165.498 22.914 165.498 22.1739C165.498 21.6021 165.599 20.9966 165.801 20.4583C166.205 19.3819 167.046 18.5072 168.089 18.0699C168.66 17.8008 169.3 17.6663 169.939 17.6999ZM169.972 19.5501C169.535 19.5164 169.098 19.6846 168.761 19.9874C168.425 20.3574 168.223 20.7947 168.189 21.2657H171.587C171.587 21.0638 171.553 20.8284 171.52 20.6265C171.452 20.4247 171.385 20.2565 171.251 20.0883C171.116 19.9201 170.948 19.7855 170.746 19.6846C170.511 19.6173 170.241 19.5501 169.972 19.5501Z" fill="black"/>
<path d="M175.725 26.8836V17.801H177.407C177.541 17.801 177.709 17.8347 177.844 17.9019C177.978 17.9692 178.046 18.1038 178.079 18.2383L178.248 18.7766C178.416 18.6084 178.618 18.4738 178.786 18.3056C178.988 18.1711 179.189 18.0365 179.391 17.9356C179.627 17.8347 179.829 17.7674 180.098 17.7001C180.367 17.6328 180.636 17.5992 180.905 17.6328C181.342 17.6328 181.813 17.7001 182.217 17.9019C182.587 18.0701 182.923 18.3056 183.193 18.6084C183.462 18.9448 183.663 19.3148 183.798 19.6848C183.933 20.1221 184 20.5931 184 21.064V26.8164H181.275V21.1313C181.309 20.7613 181.174 20.3913 180.972 20.0885C180.737 19.8194 180.4 19.6848 180.064 19.7185C179.761 19.7185 179.492 19.7857 179.223 19.9203C178.954 20.0549 178.685 20.2231 178.483 20.4249V26.8836H175.725Z" fill="black"/>
<path d="M33.7667 10.2994C35.3814 8.41556 36.0879 7.54094 35.9197 7.03635C35.7178 6.59903 35.3142 6.26264 34.8768 6.16172C34.2713 5.92625 33.4304 5.82533 33.0267 6.0608C32.6903 6.32992 32.3875 6.66631 32.1184 7.00271L31.6138 7.60821C31.2774 7.27182 30.941 6.93543 30.6047 6.66631C28.149 4.5134 25.1214 3.13418 21.8921 2.62959C20.5801 1.25038 18.8982 0.611234 17.2162 0.846709C15.7697 1.08218 14.4914 1.95681 13.7177 3.20146C10.3874 4.21064 7.42716 6.09444 5.0724 8.68467C4.53417 8.51648 3.39044 8.71831 2.65037 9.12198C2.31398 9.25654 2.04486 9.5593 1.94395 9.89569C1.91031 10.1312 2.01122 10.4676 2.88585 11.5104C0.632012 15.1771 -0.377168 19.5165 0.127422 23.8224C0.598372 28.1282 2.68401 32.0976 5.94703 34.957C7.09076 35.9662 8.36906 36.8071 9.71463 37.4463C16.0388 40.5075 23.4395 40.2384 29.5282 36.7399C30.0328 36.4371 30.201 35.8316 29.9655 35.327L29.8982 35.1588C28.889 32.9386 25.8615 26.1098 27.5435 19.9202C28.2163 17.33 30.2683 14.5716 32.0175 12.4186C33.9013 15.3116 34.8432 18.7428 34.7086 22.2077C34.6077 25.3698 33.5313 28.431 31.6138 30.9539C31.5129 31.0548 31.5129 31.1894 31.5466 31.3239L31.7484 31.7613C31.8493 31.9294 32.0511 32.0304 32.2193 31.9294C32.2866 31.8958 32.3203 31.8622 32.3539 31.8285C37.3662 25.5043 37.9717 16.8254 33.7667 10.2994ZM11.7666 24.9661C11.0938 28.3637 10.9593 31.8622 11.3293 35.327C10.051 34.6879 8.84001 33.8469 7.72991 32.905C4.76965 30.3484 2.78493 26.8499 2.0785 22.9814C1.40572 19.382 2.01122 15.648 3.79411 12.4523C4.4669 13.1587 5.27424 13.966 6.11522 14.7734C8.16722 16.8254 10.522 19.1465 11.6657 20.7948C12.3049 21.7704 12.103 22.9814 11.7666 24.9661ZM29.7637 9.59293C25.9624 13.4278 22.363 15.5135 19.1 15.7489C16.5771 15.9508 13.9195 15.1771 11.1948 13.5287C9.37824 12.385 7.66263 11.0394 6.14886 9.52566L6.04794 9.42474C7.93175 7.40638 10.2865 5.95989 12.944 5.15254C12.6749 6.229 12.6076 7.30546 12.7758 8.41556C13.0449 10.333 14.0541 12.0486 15.5679 13.226C17.7208 14.9079 20.8156 14.5043 22.4976 12.385C22.5649 12.2841 22.6321 12.2168 22.6994 12.1159C23.8095 10.5348 24.2132 8.58375 23.9104 6.66631C23.8431 6.29628 23.7759 5.92625 23.675 5.58985C25.5924 6.32992 27.3753 7.37274 28.889 8.75195C29.1245 8.98743 29.4609 9.29018 29.7637 9.59293Z" fill="black"/>
</svg>
