<svg width="907" height="420" viewBox="0 0 907 420" fill="none" xmlns="http://www.w3.org/2000/svg">
<path d="M204.7 124.762H161.562V42.1971L123.99 124.762H84.0994L46.5276 42.1971V124.762H3.38965V1.37842H70.1839L104.045 75.1304L137.906 1.37842H204.7V124.762Z" fill="#CFADF4" stroke="black" stroke-width="2.5" stroke-miterlimit="10"/>
<path d="M345.249 124.762L335.044 102.961H267.322L257.117 124.762H211.66L270.569 1.37842H331.797L391.17 124.762H345.249V124.762ZM281.701 72.3473H320.664L301.183 30.6009L281.701 72.3473Z" fill="#CFADF4" stroke="black" stroke-width="2.5" stroke-miterlimit="10"/>
<path d="M543.312 63.0704C543.312 105.744 515.945 124.762 487.187 124.762H397.664V1.37842H486.723C515.945 1.37842 543.312 20.3962 543.312 63.0704ZM470.024 88.5821C483.012 88.5821 498.783 88.5821 498.783 62.6065C498.783 36.631 483.012 36.631 470.024 36.631H440.802V88.1182H470.024V88.5821Z" fill="#CFADF4" stroke="black" stroke-width="2.5" stroke-miterlimit="10"/>
<path d="M150.894 193.411C150.894 222.634 132.34 240.26 101.262 240.26H46.5276V269.946H3.38965V146.562H101.262C131.876 146.562 150.894 163.725 150.894 193.411ZM91.0571 204.08C98.9426 204.08 106.364 204.08 106.364 193.411C106.364 182.743 98.9426 182.743 91.0571 182.743H46.5276V204.544H91.0571V204.08Z" fill="#CFADF4" stroke="black" stroke-width="2.5" stroke-miterlimit="10"/>
<path d="M313.708 209.646C313.708 251.392 290.98 273.193 238.101 273.193C185.222 273.193 162.494 251.392 162.494 209.646V146.562H205.168V208.254C205.168 222.634 211.662 237.477 237.637 237.477C264.077 237.477 270.107 222.634 270.107 208.254V146.562H313.708V209.646Z" fill="#CFADF4" stroke="black" stroke-width="2.5" stroke-miterlimit="10"/>
<path d="M472.807 245.362V269.946H429.669V252.32C429.669 241.188 426.886 238.405 415.754 238.405H368.441V269.946H325.767V146.562H421.784C456.109 146.562 472.807 160.478 472.807 186.454C472.807 205.471 464.922 216.14 449.615 221.242C464.458 222.17 472.807 230.519 472.807 245.362ZM368.441 180.887V204.08H411.579C421.32 204.08 428.278 204.08 428.278 192.484C428.278 180.887 420.856 180.887 411.579 180.887H368.441Z" fill="#CFADF4" stroke="black" stroke-width="2.5" stroke-miterlimit="10"/>
<path d="M633.762 193.411C633.762 222.634 615.208 240.26 584.131 240.26H529.396V269.946H486.722V146.562H584.594C615.208 146.562 633.762 163.725 633.762 193.411ZM574.39 204.08C582.275 204.08 589.697 204.08 589.697 193.411C589.697 182.743 582.275 182.743 574.39 182.743H529.86V204.544H574.39V204.08Z" fill="#CFADF4" stroke="black" stroke-width="2.5" stroke-miterlimit="10"/>
<path d="M687.106 233.766H767.816V269.946H644.432V146.562H687.57V233.766H687.106Z" fill="#CFADF4" stroke="black" stroke-width="2.5" stroke-miterlimit="10"/>
<path d="M905.115 179.032H821.158V192.02H901.868V224.489H821.158V237.477H905.115V269.946H778.021V146.562H905.115V179.032Z" fill="#CFADF4" stroke="black" stroke-width="2.5" stroke-miterlimit="10"/>
<path d="M77.1436 288.037C121.673 288.037 148.576 306.591 152.287 340.916H106.83C104.975 333.03 96.1614 323.754 77.6074 323.754C55.3427 323.754 46.5295 336.741 46.5295 352.976C46.5295 369.211 55.3427 382.199 77.6074 382.199C96.6252 382.199 105.438 372.921 106.83 365.036H152.287C148.576 399.825 122.137 418.379 77.1436 418.379C29.3671 418.379 2 396.578 2 352.976C2 309.838 29.3671 288.037 77.1436 288.037Z" fill="#CFADF4" stroke="black" stroke-width="2.5" stroke-miterlimit="10"/>
<path d="M277.527 415.131L267.322 393.33H199.6L189.395 415.131H143.938L203.311 291.747H264.539L322.984 415.131H277.527ZM213.979 362.716H252.943L233.461 320.97L213.979 362.716Z" fill="#CFADF4" stroke="black" stroke-width="2.5" stroke-miterlimit="10"/>
<path d="M450.078 327.465H397.663V415.132H354.525V327.465H302.574V291.285H450.078V327.465V327.465Z" fill="#CFADF4" stroke="black" stroke-width="2.5" stroke-miterlimit="10"/>
</svg>
